<svg xmlns="http://www.w3.org/2000/svg" version="1.1" xmlns:xlink="http://www.w3.org/1999/xlink" viewBox="0 0 40 40"
  display="none" width="0" height="0">
  <symbol id="e-mail" viewBox="0 0 40 40">
    <path
      d="M37.3,15.3v15.3c0,0.8-0.3,1.6-0.9,2.2c-0.6,0.6-1.4,0.9-2.2,0.9H5.8c-0.8,0-1.6-0.3-2.2-0.9s-0.9-1.4-0.9-2.2V15.3 c0.5,0.6,1.2,1.1,2,1.7c4.7,3.1,7.9,5.4,9.6,6.7c0.7,0.5,1.4,0.9,1.8,1.2c0.4,0.3,1,0.6,1.9,0.9c0.7,0.3,1.5,0.5,2.1,0.5l0,0 c0.6,0,1.4-0.2,2.1-0.5c0.7-0.3,1.4-0.6,1.9-0.9c0.4-0.3,1-0.7,1.8-1.2c2.2-1.6,5.4-3.8,9.6-6.7C36.1,16.5,36.7,15.9,37.3,15.3 L37.3,15.3z M37.3,9.6c0,1-0.3,2-0.9,2.9c-0.6,0.9-1.5,1.8-2.4,2.4c-4.9,3.3-7.9,5.4-9,6.2c-0.1,0.1-0.4,0.3-0.8,0.6 c-0.4,0.3-0.7,0.5-1,0.7c-0.3,0.2-0.6,0.4-1,0.6c-0.4,0.2-0.7,0.4-1.1,0.5c-0.4,0.1-0.6,0.2-0.9,0.2l0,0c-0.3,0-0.6-0.1-0.9-0.2 c-0.3-0.1-0.7-0.3-1.1-0.5c-0.4-0.2-0.7-0.4-1-0.6c-0.3-0.2-0.6-0.4-1-0.7c-0.4-0.3-0.7-0.5-0.8-0.6c-1.1-0.8-2.8-2-5.1-3.5 c-2.3-1.6-3.3-2.4-3.7-2.7c-0.8-0.5-1.6-1.2-2.3-2.2s-1-1.9-1-2.6c0-1,0.3-1.9,0.8-2.5c0.5-0.6,1.2-1,2.3-1h28.4 c0.8,0,1.6,0.3,2.2,0.9C37.1,8.1,37.3,8.8,37.3,9.6L37.3,9.6z">
    </path>
  </symbol>

  <symbol id="mobile" viewBox="0 0 40 40">
    <path
      d="M22.2,34.9c0-0.6-0.2-1.2-0.7-1.6c-0.4-0.4-1-0.7-1.6-0.7s-1.2,0.2-1.6,0.7c-0.4,0.4-0.7,1-0.7,1.6c0,0.6,0.2,1.2,0.7,1.6 s1,0.7,1.6,0.7c0.6,0,1.2-0.2,1.6-0.7S22.2,35.6,22.2,34.9z M28.2,30.4V10.2c0-0.2-0.1-0.5-0.3-0.6c-0.2-0.2-0.4-0.3-0.6-0.3H12.6 c-0.2,0-0.5,0.1-0.6,0.3c-0.2,0.2-0.3,0.4-0.3,0.6v20.1c0,0.2,0.1,0.5,0.3,0.6c0.2,0.2,0.4,0.3,0.6,0.3h14.6c0.2,0,0.5-0.1,0.6-0.3 C28.1,30.8,28.2,30.6,28.2,30.4z M22.7,6.1c0-0.3-0.2-0.5-0.5-0.5h-4.6c-0.3,0-0.5,0.2-0.5,0.5c0,0.3,0.2,0.5,0.5,0.5h4.6 C22.5,6.6,22.7,6.4,22.7,6.1z M30.9,5.6v29.3c0,1-0.4,1.9-1.1,2.6c-0.7,0.7-1.6,1.1-2.6,1.1H12.6c-1,0-1.9-0.4-2.6-1.1 c-0.7-0.7-1.1-1.6-1.1-2.6V5.6c0-1,0.4-1.9,1.1-2.6C10.8,2.3,11.6,2,12.6,2h14.6c1,0,1.9,0.4,2.6,1.1C30.6,3.8,30.9,4.6,30.9,5.6z">
    </path>
  </symbol>

  <symbol id="linkedin" viewBox="0 0 40 40">
    <path
      d="M12.1,13.8v19.1H5.7V13.8C5.7,13.8,12.1,13.8,12.1,13.8z M12.5,7.9c0,0.9-0.3,1.7-1,2.4c-0.7,0.6-1.5,0.9-2.6,0.9h0 c-1.1,0-1.9-0.3-2.5-0.9c-0.6-0.6-1-1.4-1-2.4c0-1,0.3-1.7,1-2.4S7.9,4.6,9,4.6s1.9,0.3,2.6,0.9S12.5,6.9,12.5,7.9z M35,22v11h-6.4 V22.7c0-1.4-0.3-2.4-0.8-3.2c-0.5-0.8-1.3-1.1-2.4-1.1c-0.8,0-1.5,0.2-2,0.7c-0.5,0.4-1,1-1.2,1.7c-0.1,0.4-0.2,0.9-0.2,1.6v10.7 h-6.4c0-5.1,0-9.3,0-12.5s0-5.1,0-5.7l0-0.9H22v2.8h0c0.3-0.4,0.5-0.8,0.8-1.1c0.3-0.3,0.6-0.6,1.1-1c0.5-0.4,1-0.6,1.7-0.8 c0.7-0.2,1.4-0.3,2.2-0.3c2.2,0,4,0.7,5.3,2.2C34.4,17,35,19.1,35,22L35,22z">
    </path>
  </symbol>

  <symbol id="github" viewBox="0 0 40 40">
    <path
      d="M36,20.3c0,3.5-1,6.6-3.1,9.4c-2,2.8-4.7,4.7-7.9,5.8c-0.4,0.1-0.6,0-0.8-0.1c-0.2-0.2-0.3-0.4-0.3-0.6v-4.4 c0-1.3-0.4-2.3-1.1-3c0.8-0.1,1.5-0.2,2.1-0.4c0.6-0.2,1.3-0.4,2-0.8c0.7-0.4,1.2-0.8,1.7-1.4c0.5-0.5,0.8-1.3,1.1-2.2 s0.4-2,0.4-3.1c0-1.7-0.5-3.1-1.6-4.3c0.5-1.3,0.5-2.7-0.2-4.2c-0.4-0.1-1,0-1.7,0.2c-0.7,0.3-1.4,0.6-1.9,0.9L24,12.5 c-1.3-0.4-2.6-0.5-4-0.5s-2.7,0.2-4,0.5c-0.2-0.2-0.5-0.3-0.9-0.6c-0.4-0.2-0.9-0.5-1.7-0.8c-0.8-0.3-1.4-0.4-1.8-0.3 c-0.6,1.6-0.7,3-0.1,4.2c-1.1,1.2-1.6,2.6-1.6,4.3c0,1.2,0.1,2.2,0.4,3.1s0.6,1.6,1.1,2.2s1,1,1.7,1.4c0.7,0.4,1.3,0.6,2,0.8 c0.6,0.2,1.3,0.3,2.1,0.4c-0.6,0.5-0.9,1.2-1,2.1c-0.3,0.1-0.6,0.2-0.9,0.3c-0.3,0.1-0.7,0.1-1.2,0.1c-0.5,0-0.9-0.1-1.4-0.4 c-0.5-0.3-0.8-0.7-1.2-1.3c-0.3-0.4-0.6-0.8-1-1.1c-0.4-0.3-0.8-0.4-1-0.5L9,26.5c-0.3,0-0.5,0-0.6,0.1c-0.1,0.1-0.1,0.1-0.1,0.2 c0,0.1,0.1,0.2,0.2,0.3c0.1,0.1,0.2,0.2,0.3,0.2l0.1,0.1c0.3,0.1,0.6,0.4,0.9,0.8s0.5,0.7,0.7,1.1l0.2,0.5c0.2,0.5,0.5,1,0.9,1.3 c0.4,0.3,0.9,0.5,1.4,0.6c0.5,0.1,1,0.1,1.4,0.1c0.5,0,0.9,0,1.2-0.1l0.5-0.1c0,0.5,0,1.1,0,1.9c0,0.7,0,1.1,0,1.1 c0,0.2-0.1,0.5-0.3,0.6c-0.2,0.2-0.5,0.2-0.8,0.1c-3.2-1.1-5.8-3-7.9-5.8S4,23.8,4,20.3c0-2.9,0.7-5.6,2.1-8S9.5,7.8,12,6.4 s5.1-2.1,8-2.1s5.6,0.7,8,2.1s4.4,3.4,5.8,5.8S36,17.4,36,20.3L36,20.3z">
    </path>
  </symbol>

  <symbol id="ge"
    xmlns:cc="http://creativecommons.org/ns#" xmlns:dc="http://purl.org/dc/elements/1.1/" xmlns:inkscape="http://www.inkscape.org/namespaces/inkscape" xmlns:rdf="http://www.w3.org/1999/02/22-rdf-syntax-ns#" xmlns:svg="http://www.w3.org/2000/svg"
    xmlns="http://www.w3.org/2000/svg" xmlns:xlink="http://www.w3.org/1999/xlink" x="0px" y="0px" width="500px" height="500px"
    viewBox="0 0 500 500" style="enable-background:new 0 0 500 500;" xml:space="preserve">

    <g id="g10" transform="matrix(1, 0, 0, 1, 0, 0)" >
      <g id="g12" transform="scale(0.1,0.1)">
        <path id="path14" inkscape:connector-curvature="0" class="st0" fill="white" d="M2499.8,4950C3853.2,4950,4950,3853.2,4950,2500.2
          C4950,1147.2,3853.2,50,2499.8,50C1146.8,50,50,1147.2,50,2500.2C50,3853.2,1146.8,4950,2499.8,4950"/>
        <path id="path16" inkscape:connector-curvature="0" class="st1" fill="blue" d="M3049.6,1862.1c0-278.6,188.6-548.8,291.5-497.9
          C3458.4,1423,3253.2,1685.4,3049.6,1862.1 M1767.1,1963.6c0-224,221-649.6,356-604.6C2282.7,1412.2,1990.9,1841.5,1767.1,1963.6
          M1543,3565.6c-101.6,4.6-169.6-60.4-169.6-168.9c0-291.5,404.5-570,710-719.5C2029.2,3084.2,1891.7,3549.9,1543,3565.6
          M3409.2,2615.7c-230.7,0-407,169.7-407,373.2c0,169.7,102,305.4,237.3,305.4c47.9,0,95.3-27.3,95.3-87.9
          c0-88.7-117-110-108.2-241.9c5.9-87,87.9-145.2,169.3-145.2c162.7,0,238.8,157.7,238.8,320.4c-6.6,251.3-191.6,425.8-408.4,425.8
          c-285.2,0-468.4-271.2-468.4-563.1c0-434.6,285.2-604.2,434.6-644.7c1.4,0,390.2,69.1,378.1-102.3
          c-5.6-75.4-117.7-104.4-198.7-107.5c-90.1-3.5-181.1,28.9-181.1,28.9c-47.2-24-80-70.9-100.3-124.9
          c278.3-210.6,475.1-414,475.1-644.8c0-122.1-81.6-230.7-237.7-230.7c-278.3,0-488.7,352.9-488.7,671.9c0,54.1,0,108.6,14,156
          c-176.6,128.8-307.9,209.1-545.2,351.6c0-29.7,6.2-106.4,26.2-205.6c81.3-88.3,193-220.6,193-322.5c0-47.4-26.9-88.3-81.7-88.3
          c-135.5,0-237.1,203.8-264.3,346.3c-61.1,75-183.3,170-285.3,170c-81.3,0-108.6-74.7-115.5-102c258-88.3,577-441.2,577-760.2
          c0-67.7-27.2-217.2-230.7-217.2c-305.4,0-563,454.9-563,807.4c-108.9,0-149.4-115.2-149.4-203.5c0-88.4,33.9-176.3,33.9-203.6
          c0-27.2-13.6-61-54.5-61c-101.6,0-162.7,135.7-162.7,291.8c7,217.2,149.4,353.3,339.3,366.6c27.2,129.1,142.4,251.3,284.8,251.3
          c88.4,0,196.9-27.2,271.6-94.9c-6.6,47.4-13.2,88.3-20.2,128.8c-298.8,156.4-516,264.9-712.8,441.3
          c-155.7,142.7-244,332.6-244,481.7c0,203.9,128.8,393.8,393.4,393.8c312,0,549.8-251,665.3-597.3
          c54.1-162.7,75.8-399.7,89.7-617.2c311.8-176.7,459.8-278.5,622.8-394.1c20.3,33.9,40.8,61,67.7,81.3
          c-142.4,74.7-481.7,285.2-481.7,780.5c0,352.9,237.3,746.7,705.9,746.7c386.8,0,651.4-319.1,651.4-624.6
          C3864.1,2873.4,3708,2615.7,3409.2,2615.7 M4576.1,3198.7c-1,2.1-4.8,4.9-12.5,2.4c-6-2.1-7.3-4.9-7.3-8.8
          c0.3-3.8,82-245.4,81.3-522.2c-0.7-299.2-122.1-482.5-277.8-482.5c-95.3,0-163.1,68.1-163.1,170.1
          c0,183.2,223.8,196.9,223.8,597.2c0,162.7-33.9,318.8-87.9,488.4c-251.4,848.2-1052.2,1242-1832.3,1242
          c-359.9,0-615.5-74-691.5-108.1c-3.1-1.8-6-7.7-3.5-13.7c1.7-4.5,7-8,10.1-6.6c30.8,11.9,250.3,81,521.9,81
          c298.5,0,475.1-122.1,475.1-271.6c0-94.9-74.7-169.6-169.6-169.6c-183.3,0-197.2,230.7-590.7,230.7c-169.6,0-319-33.9-495.3-88.4
          C715,4081.2,314.3,3287.4,314.6,2500.2c0.3-383.6,107.9-689.1,109.6-691.9c1.4-2,6.2-4.2,12.1-2c6,2,7.3,6.9,7,8.7
          c-9.7,31.8-81,250.7-81,522.3c0,298.8,122.1,475.1,278.2,475.1c88,0,162.7-67.7,162.7-162.7c0-183.5-224.1-203.8-224.1-597.5
          c0-169.7,34.2-319.1,88.3-495.4c258-841.6,1052.2-1236,1832.7-1242.1c362.7-2.8,680,105.8,692.2,115.5c2.1,1.8,4.2,6.4,2.1,11.9
          c-2.9,6.6-7.1,7.3-9.1,6.9c-3.8-0.3-210.2-86.6-522.6-86.6c-291.8-0.3-475.1,121.9-475.1,278.2c0,88,68.1,162.7,169.6,162.7
          c183.3,0,196.9-223.8,590.7-223.8c169.2,0,318.7,33.5,495,88c848.6,257.9,1234.7,1058.7,1242,1832.6
          C4688.9,2896.4,4577.2,3196.2,4576.1,3198.7 M2500.2,165.5c-1289.5,0-2334.6,1044.8-2334.6,2334.6
          c0,1289.5,1045.1,2334.3,2334.6,2334.3c1289.2,0,2334.3-1044.8,2334.3-2334.3C4834.5,1217.3,3789.4,165.5,2500.2,165.5
          M2500.2,4950C1149.6,4950,50,3857.4,50,2500.2C50,1149.2,1149.6,50,2500.2,50C3850.4,50,4950,1149.2,4950,2500.2
          C4950,3857.4,3850.4,4950,2500.2,4950"/>
      </g>
    </g>
  </symbol>

  <symbol version="1.2" baseProfile="tiny" id="scott" xmlns="http://www.w3.org/2000/svg" xmlns:xlink="http://www.w3.org/1999/xlink"
	 x="0px" y="0px" width="139.555px" height="88.215px" viewBox="0 0 139.555 88.215" xml:space="preserve">
    <path d="M18.469,82.375c1.477,0.033,1.721,1.051,1.345,1.886l-0.483,1.075c-0.188,0.412-0.161,0.39-0.703,0.391l-17.186-0.03
      L0,88.215l27.015-0.047l2.759-5.217c0.871-1.82,0.017-3.302-2.16-3.345l-10.889,0.028c-0.958-0.001-1.408-0.898-1.116-1.678
      l0.454-1.213c0.226-0.6,0.229-0.562,0.851-0.566l16.422-0.057l1.44-2.631L11.164,73.5c-2.2,0.006-3.667,1.623-4.241,2.635
      l-1.2,2.101c-1.045,1.825-0.357,4.179,2.62,4.125L18.469,82.375z"/>
    <path d="M64.432,73.497h21.119c1.816,0,2.702,2.023,1.733,3.688l-4.983,8.563c-0.79,1.356-2.551,2.465-3.905,2.465l-21.131-0.008
      c-1.833,0-2.965-1.627-2.015-3.248l5.276-8.998C61.321,74.606,63.076,73.497,64.432,73.497L64.432,73.497z M76.046,76.17h-5.427
      c-0.621,0-1.416,0.509-1.769,1.129l-3.758,6.66c-0.479,0.849,0.117,1.77,0.986,1.77h5.641c0.621,0,1.416-0.509,1.767-1.13
      l3.672-6.503C77.775,77,77.052,76.17,76.046,76.17z"/>
    <polygon points="98.893,73.495 108.341,73.495 99.805,88.213 90.354,88.213 "/>
    <polygon points="88.967,76.225 90.48,73.495 115.047,73.495 113.533,76.226 106.757,76.229 99.805,88.213 90.354,88.213 
      97.324,76.198 "/>
    <polygon points="115.869,76.167 117.184,73.5 139.555,73.495 138.041,76.226 131.266,76.229 124.313,88.213 114.863,88.213 
      121.832,76.198 "/>
    <path d="M36.243,76.055c0.976-1.891,2.741-2.546,4.806-2.563h18.104l-1.646,2.662l-10.669,0.01c-0.75,0.022-1.527,0.525-1.713,0.918
      l-3.785,6.401c-0.571,1.004-0.15,2.229,1.493,2.241l9.37,0.027l-1.377,2.453l-17.781-0.02c-1.719,0.029-2.566-1.855-1.67-3.35
      L36.243,76.055z"/>
    <path fill="#8FA3AD" d="M88.714,0.311l-6.956,11.914L69.644,12.4c-2.035,0.137-3.103,0.367-4.144,2.085l-4.47,8.261
      c-0.99,1.916-0.766,3.729-0.061,5.186l3.142,6.105c1.565,2.235,1.708,5.793,0.767,7.795l-6.702,10.917L46.332,32.403
      c-1.062-2.567-0.871-8.134,1.376-11.859l9.783-16.975c1.595-2.654,3.39-3.646,7.609-3.564L88.714,0.311z"/>
    <path d="M51.246,64.879l6.93-12.131h12.207c2.043-0.139,3.114-0.369,4.158-2.094l4.483-8.29c0.994-1.923,0.771-3.742,0.062-5.203
      l-3.152-6.127c-1.57-2.244-1.713-5.813-0.768-7.822l6.592-10.988l12.02,20.449c1.063,2.576,0.873,8.162-1.382,11.901l-9.816,17.033
      c-1.601,2.663-3.401,3.659-7.638,3.577L51.246,64.879z"/>
  </symbol>

  <symbol id="vw" viewBox="0 0 200 200">
      <path
        style="fill:#3266bc;fill-opacity:1;fill-rule:evenodd;stroke:none"
        d="M 96.416231,0.82544309 C 149.02847,0.82544309 191.93735,43.729547 191.93735,96.420982 C 191.93735,148.95451 149.02847,191.93733 96.416231,191.93733 C 43.803393,191.93733 0.82045379,148.95451 0.82045379,96.420982 C 0.82045379,43.729547 43.803394,0.82067243 96.416231,0.82067243"/>
      <path
        style="fill:#ffffff;fill-rule:evenodd;stroke:none"
        d="M 96.416231,12.957334 C 142.29701,12.957334 179.80068,50.461006 179.80068,96.420982 C 179.80068,142.30176 142.29701,179.72672 96.416231,179.72672 C 50.540099,179.72672 13.036071,142.30176 13.036071,96.420982 C 13.036071,50.461005 50.540099,12.957334 96.420883,12.957334 L 96.416231,12.957334 z M 40.593427,51.555881 L 70.503454,129.14536 L 81.461158,100.80502 L 110.19735,100.80502 L 121.15446,129.14536 L 151.37685,50.619631 C 146.05156,44.19469 139.63258,38.71554 132.42882,34.489892 L 111.45086,92.269996 L 81.852475,92.269996 L 60.789712,34.25255 C 53.041975,38.71554 46.230606,44.585888 40.593427,51.555882 L 40.593427,51.555881 z M 163.43838,71.053736 L 129.37796,159.91638 C 152.24393,147.93954 167.97651,123.97869 167.97651,96.420979 C 167.97651,87.494759 166.41172,78.959976 163.43838,71.053732 L 163.43838,71.053736 z M 114.50171,165.70802 L 114.26914,163.90946 L 95.791865,115.99254 L 77.310051,163.90946 L 77.235509,165.39554 C 83.338667,167.12015 89.758598,167.97649 96.416231,167.97649 C 102.67754,167.97649 108.70651,167.19409 114.50172,165.70802 L 114.50171,165.70802 z M 62.047626,159.13399 L 28.84832,72.618525 C 26.188058,80.054855 24.776527,88.044586 24.776527,96.420982 C 24.776527,123.35373 39.810675,146.99733 62.047626,159.13399 L 62.047626,159.13399 z M 96.416231,24.781516 C 102.68231,24.781516 108.86514,25.563911 114.73906,27.129894 L 96.653812,77.161425 L 78.488772,27.049984 C 84.205264,25.563912 90.233879,24.781516 96.416231,24.781516"/>
  </symbol>

  <symbol id="mtu"
    xmlns:svg="http://www.w3.org/2000/svg"
    xmlns="http://www.w3.org/2000/svg"
    version="1.0"
    viewBox="0 0 134.92111 56.783749">
    <defs id="defs2324" />
    <g
      transform="translate(-312.53944,-529.68459)"
      id="layer1">
      <path
        d="M 22.46875,0 C 16.7375,0 13.4575,3.945 12.34375,7.34375 C 11.6875,9.335 1.795,43.915001 0.25,50.0625 C -1.19625,55.815 3.7212499,56.781251 5.625,56.78125 C 6.67625,56.78125 42.61125,56.781251 48.34375,56.78125 C 54.07625,56.78125 56.863749,51.656249 57.3125,50.15625 C 57.71,48.83375 71.562502,-6.4600316e-16 71.5625,0 C 71.5625,0 24.2825,0 22.46875,0 z M 85.84375,0 C 80.11375,0 76.835,3.945 75.71875,7.34375 C 75.065,9.335 65.171252,43.915001 63.625,50.0625 C 62.17875,55.815 67.097496,56.781251 69,56.78125 C 70.055,56.78125 105.99,56.781251 111.71875,56.78125 C 117.45625,56.78125 120.2375,51.656249 120.6875,50.15625 C 121.08375,48.83375 134.90625,-1.0907922e-15 134.90625,0 C 134.90625,0 87.663752,0 85.84375,0 z "
        transform="translate(312.53944,529.68459)"
        style="fill:#8a8a8e;fill-opacity:1;fill-rule:nonzero;stroke:none"
        id="path9211" />
      <path
        d="M 336.04305,531.91084 C 337.7143,531.91084 380.9843,531.91084 380.9843,531.91084 C 380.9843,531.91084 368.23055,576.92209 367.8668,578.13584 C 367.4493,579.52459 365.17305,584.24459 359.89305,584.24459 C 354.6093,584.24459 321.5068,584.25459 320.53555,584.24459 C 315.04305,584.19584 314.2493,583.34834 315.58305,578.04334 C 317.0043,572.37709 326.0818,540.50709 326.72805,538.68709 C 328.15305,534.69959 330.75805,531.91084 336.04305,531.91084"
        style="fill:#263884;fill-opacity:1;fill-rule:nonzero;stroke:none"
        id="path9213" />
      <path
        d="M 399.41305,531.91084 C 401.08555,531.91084 444.35805,531.91084 444.35805,531.91084 C 444.35805,531.91084 431.6043,576.92209 431.23805,578.13584 C 430.82305,579.52459 428.5493,584.24459 423.2643,584.24459 C 417.9843,584.24459 384.87805,584.25459 383.9068,584.24459 C 378.41555,584.19584 377.6218,583.34834 378.9568,578.04334 C 380.37805,572.37709 389.45805,540.50709 390.1043,538.68709 C 391.52305,534.69959 394.13055,531.91084 399.41305,531.91084"
        style="fill:#ed192e;fill-opacity:1;fill-rule:nonzero;stroke:none"
        id="path9217" />
      <path
        d="M 38.125,34.53125 L 33.15625,35.9375 L 32.75,37.375 L 30.1875,37.375 L 29.375,40 L 31.9375,40 C 31.9375,40 30.75625,44.030001 30.34375,45.625 C 29.935,47.22375 31.1275,47.562501 31.71875,47.5625 C 32.31,47.5625 37.968751,47.562501 37.96875,47.5625 L 38.65625,44.875 L 35.1875,44.875 L 36.53125,40 L 41.875,40 C 41.875,40 40.939999,43.336248 40.4375,45.25 C 39.9375,47.17 40.98625,47.562501 41.875,47.5625 C 42.76,47.5625 48.567499,47.562501 50.09375,47.5625 C 51.6175,47.5625 52.222501,46.175 52.40625,45.40625 C 52.58375,44.64375 54.78125,37.375 54.78125,37.375 L 50.125,37.375 L 47.9375,44.875 L 45.21875,44.875 L 47.3125,37.375 L 37.375,37.375 L 38.125,34.53125 z M 11.625,37.375 C 9.82875,37.375 9.4474998,38.585001 9.21875,39.125 C 8.99125,39.6725 6.9375002,47.562501 6.9375,47.5625 L 11.5625,47.5625 L 13.6875,40 L 16.375,40 L 14.28125,47.5625 L 18.90625,47.5625 L 21.09375,40 L 23.8125,40 L 21.6875,47.5625 L 26.40625,47.5625 C 26.40625,47.5625 28.2925,40.90125 28.65625,39.5 C 29.02,38.105 28.19625,37.375 27.375,37.375 C 26.5575,37.375 13.4225,37.375 11.625,37.375 z "
        transform="translate(312.53944,529.68459)"
        style="fill:#8a8a8e;fill-opacity:1;fill-rule:nonzero;stroke:none"
        id="path9219" />
      <path
        d="M 37.34375,35.3125 L 33.53125,36.34375 L 33.09375,37.90625 L 30.53125,37.90625 L 30.0625,39.53125 L 32.59375,39.5 C 32.59375,39.5 31.165001,44.46875 30.84375,45.6875 C 30.52625,46.90625 31.35875,47.031251 31.8125,47.03125 C 32.2675,47.03125 37.531252,47.031251 37.53125,47.03125 L 37.9375,45.40625 L 34.5,45.40625 L 36.09375,39.5 L 42.5625,39.5 C 42.5625,39.5 41.2225,44.285 40.90625,45.59375 C 40.62125,46.7825 41.320001,47.031251 41.75,47.03125 C 42.1825,47.03125 49.265002,47.031251 50.21875,47.03125 C 51.1725,47.03125 51.629999,45.94875 51.8125,45.40625 C 51.995,44.87 54.000002,37.90625 54,37.90625 L 50.5,37.90625 L 48.34375,45.40625 L 44.5,45.40625 L 46.53125,37.90625 L 36.625,37.90625 L 37.34375,35.3125 z M 11.5625,37.90625 C 10.29,37.90625 9.8075,38.90125 9.625,39.6875 C 9.44375,40.47125 7.6562502,47.031251 7.65625,47.03125 L 11.125,47.03125 L 13.21875,39.5 L 17.125,39.5 L 15,47.03125 L 18.5,47.03125 L 20.71875,39.5 L 24.5,39.5 L 22.40625,47.03125 L 26,47.03125 C 26,47.03125 27.7725,40.911249 28.09375,39.375 C 28.41,37.845 27.477501,37.90625 27,37.90625 C 26.52375,37.90625 12.8375,37.90625 11.5625,37.90625 z "
        transform="translate(312.53944,529.68459)"
        style="fill:#ffffff;fill-opacity:1;fill-rule:nonzero;stroke:none"
        id="path9223" />
    </g>
  </symbol>

  <symbol id="zf"
    xmlns:svg="http://www.w3.org/2000/svg"
    xmlns="http://www.w3.org/2000/svg"
    version="1.0"
    viewBox="0 0 44.291248 44.291248">

    <g
      transform="translate(-340.71152,-487.35941)"
      id="layer1">
      <path fill="#4367c5"
        d="M 340.71152,487.35941 L 385.00277,487.35941 L 385.00277,531.65066 L 340.71152,531.65066 L 340.71152,487.35941"
        id="path17940" />
      <path fill="#ffffff"
        d="M 22.15625,1.1875 C 16.3725,1.1875 11.13375,3.5537502 7.34375,7.34375 C 3.55375,11.13375 1.21875,16.3725 1.21875,22.15625 C 1.21875,27.94 3.5537498,33.147502 7.34375,36.9375 C 11.13375,40.72625 16.3725,43.093748 22.15625,43.09375 C 27.93875,43.09375 33.17875,40.726252 36.96875,36.9375 C 40.7575,33.1475 43.09375,27.94 43.09375,22.15625 C 43.09375,16.3725 40.7575,11.13375 36.96875,7.34375 C 33.17875,3.55375 27.93875,1.1875 22.15625,1.1875 z M 22.21875,3.25 C 25.0775,3.25 27.7875,3.8912502 30.21875,5.03125 C 32.65125,6.1725 34.795,7.8012499 36.53125,9.8125 C 36.57625,9.86625 36.725,10.035 36.84375,10.1875 C 36.96125,10.33875 37.0625,10.46875 37.0625,10.46875 L 23.5,10.46875 L 23.5,29.375 L 29.15625,29.375 L 29.15625,22.0625 L 34.28125,22.0625 L 34.28125,19.5 L 29.15625,19.5 L 29.15625,13.03125 L 38.78125,13.03125 C 39.53,14.38375 40.13125,15.847499 40.53125,17.375 C 40.93125,18.9025 41.156251,20.50375 41.15625,22.15625 C 41.15625,23.67125 40.959999,25.15125 40.625,26.5625 C 40.2875,27.975 39.792499,29.32375 39.15625,30.59375 C 39.10625,30.695 39.022499,30.817501 38.9375,30.9375 C 38.85375,31.0575 38.772499,31.183749 38.71875,31.28125 L 26.46875,31.28125 L 14.5,31.28125 L 22.90625,10.46875 L 7.3125,10.46875 C 9.045,8.2925 11.26625,6.48375 13.8125,5.21875 C 16.3575,3.955 19.22625,3.2499999 22.21875,3.25 z M 5.65625,13.03125 L 10.84375,13.03125 L 15.78125,13.03125 L 7.375,33.8125 L 37.125,33.8125 C 35.388749,36.017499 33.16625,37.8375 30.625,39.09375 C 28.085,40.351249 25.2375,41.0625 22.21875,41.0625 C 17.0025,41.0625 12.265,38.92125 8.84375,35.5 C 8.3152908,34.971541 7.8378886,34.399319 7.375,33.8125 C 4.8400482,30.598856 3.3125,26.566016 3.3125,22.15625 C 3.3125,20.526249 3.535,18.91375 3.9375,17.375 C 4.34125,15.83625 4.93,14.36875 5.65625,13.03125 z "
        transform="translate(340.71152,487.35941)"
        id="path17942" />
    </g>
  </symbol>
</svg>