<?xml version="1.0" encoding="UTF-8" standalone="no"?>
<!-- Created with Inkscape (http://www.inkscape.org/) -->
<svg
   xmlns:ns="http://creativecommons.org/ns#"
   xmlns:dc="http://purl.org/dc/elements/1.1/"
   xmlns:cc="http://web.resource.org/cc/"
   xmlns:rdf="http://www.w3.org/1999/02/22-rdf-syntax-ns#"
   xmlns:svg="http://www.w3.org/2000/svg"
   xmlns="http://www.w3.org/2000/svg"
   xmlns:xlink="http://www.w3.org/1999/xlink"
   xmlns:sodipodi="http://sodipodi.sourceforge.net/DTD/sodipodi-0.dtd"
   xmlns:inkscape="http://www.inkscape.org/namespaces/inkscape"
   version="1.0"
   width="976.69727"
   height="667.01099"
   id="svg2"
   xml:space="preserve"
   sodipodi:version="0.32"
   inkscape:version="0.45.1"
   sodipodi:docname="Logo_John_Deere.svg"
   inkscape:output_extension="org.inkscape.output.svg.inkscape"
   sodipodi:docbase="/home/tbn/Desktop"><metadata
     id="metadata170"><rdf:RDF><ns:Work
         rdf:about=""><dc:format>image/svg+xml</dc:format><dc:type
           rdf:resource="http://purl.org/dc/dcmitype/StillImage" /></ns:Work><cc:Work
         rdf:about=""><dc:format>image/svg+xml</dc:format><dc:type
           rdf:resource="http://purl.org/dc/dcmitype/StillImage" /></cc:Work></rdf:RDF></metadata><sodipodi:namedview
     inkscape:window-height="967"
     inkscape:window-width="992"
     inkscape:pageshadow="2"
     inkscape:pageopacity="0.0"
     guidetolerance="10.0"
     gridtolerance="10.0"
     objecttolerance="10.0"
     borderopacity="1.0"
     bordercolor="#666666"
     pagecolor="#ffffff"
     id="base"
     showgrid="false"
     inkscape:zoom="0.55697915"
     inkscape:cx="379.86004"
     inkscape:cy="308.53324"
     inkscape:window-x="0"
     inkscape:window-y="27"
     inkscape:current-layer="layer1" /><defs
     id="defs5"><inkscape:perspective
       sodipodi:type="inkscape:persp3d"
       inkscape:vp_x="0 : 333.50549 : 1"
       inkscape:vp_y="0 : 1000 : 0"
       inkscape:vp_z="976.69727 : 333.50549 : 1"
       inkscape:persp3d-origin="488.34863 : 222.337 : 1"
       id="perspective172" /><radialGradient
       cx="-10.289568"
       cy="5.4715519"
       r="1"
       fx="-10.289568"
       fy="5.4715519"
       id="radialGradient53"
       gradientUnits="userSpaceOnUse"
       gradientTransform="matrix(0,-1559.8157,1565.1442,0,-6796.6927,-12561.73)"
       spreadMethod="pad"><stop
         id="stop55"
         style="stop-color:#41a849;stop-opacity:1"
         offset="0" /><stop
         id="stop57"
         style="stop-color:#19512a;stop-opacity:1"
         offset="1" /></radialGradient><linearGradient
       x1="0"
       y1="0"
       x2="1"
       y2="0"
       id="linearGradient69"
       gradientUnits="userSpaceOnUse"
       gradientTransform="matrix(-381.814,0,0,-380.521,387.102,408.607)"
       spreadMethod="pad"><stop
         id="stop71"
         style="stop-color:#0b3d1b;stop-opacity:1"
         offset="0" /><stop
         id="stop73"
         style="stop-color:#2b6b36;stop-opacity:1"
         offset="1" /></linearGradient><linearGradient
       x1="0"
       y1="0"
       x2="1"
       y2="0"
       id="linearGradient97"
       gradientUnits="userSpaceOnUse"
       gradientTransform="matrix(-363.245,-64.0499,64.0499,-363.245,392.652,455.251)"
       spreadMethod="pad"><stop
         id="stop99"
         style="stop-color:#cfaa34;stop-opacity:1"
         offset="0" /><stop
         id="stop101"
         style="stop-color:#f6f7e8;stop-opacity:1"
         offset="1" /></linearGradient><linearGradient
       x1="4.2199125"
       y1="8.8699417"
       x2="5.2199116"
       y2="8.8699417"
       id="linearGradient113"
       gradientUnits="userSpaceOnUse"
       gradientTransform="matrix(345.507,0,0,345.507,38.1092,423.433)"
       spreadMethod="pad"><stop
         id="stop115"
         style="stop-color:#fdcb25;stop-opacity:1"
         offset="0" /><stop
         id="stop117"
         style="stop-color:#fde92b;stop-opacity:1"
         offset="1" /></linearGradient><linearGradient
       x1="-3.5425999"
       y1="-9.2591581"
       x2="-4.1100001"
       y2="-10.07875"
       id="linearGradient129"
       gradientUnits="userSpaceOnUse"
       gradientTransform="matrix(-343.983,0,0,-342.818,386.34,435.612)"
       spreadMethod="pad"><stop
         id="stop131"
         style="stop-color:#0b3d1b;stop-opacity:1"
         offset="0" /><stop
         id="stop133"
         style="stop-color:#2b6b36;stop-opacity:1"
         offset="1" /></linearGradient><linearGradient
       x1="0"
       y1="0"
       x2="1"
       y2="0"
       id="linearGradient145"
       gradientUnits="userSpaceOnUse"
       gradientTransform="matrix(0,-17.7028,17.7627,0,217.903,338.417)"
       spreadMethod="pad"><stop
         id="stop147"
         style="stop-color:#fbdd2a;stop-opacity:1"
         offset="0" /><stop
         id="stop149"
         style="stop-color:#a37f30;stop-opacity:1"
         offset="1" /></linearGradient><linearGradient
       x1="0"
       y1="0"
       x2="1"
       y2="0"
       id="linearGradient167"
       gradientUnits="userSpaceOnUse"
       gradientTransform="matrix(0,-84.6656,84.9525,0,279.176,339.488)"
       spreadMethod="pad"><stop
         id="stop169"
         style="stop-color:#fbdd2a;stop-opacity:1"
         offset="0" /><stop
         id="stop171"
         style="stop-color:#f6f2d8;stop-opacity:1"
         offset="1" /></linearGradient><linearGradient
       x1="0"
       y1="0"
       x2="1"
       y2="0"
       id="linearGradient193"
       gradientUnits="userSpaceOnUse"
       gradientTransform="matrix(0,-16.7366,16.7932,0,196.208,354.691)"
       spreadMethod="pad"><stop
         id="stop195"
         style="stop-color:#fbdd2a;stop-opacity:1"
         offset="0" /><stop
         id="stop197"
         style="stop-color:#a37f30;stop-opacity:1"
         offset="1" /></linearGradient><linearGradient
       x1="-29.343561"
       y1="25.393435"
       x2="-37.14959"
       y2="24.338591"
       id="linearGradient209"
       gradientUnits="userSpaceOnUse"
       gradientTransform="matrix(0,-67.2626,67.4904,0,233.697,557.31)"
       spreadMethod="pad"><stop
         id="stop211"
         style="stop-color:#f6f7e8;stop-opacity:1"
         offset="0" /><stop
         id="stop213"
         style="stop-color:#fce24c;stop-opacity:1"
         offset="1" /></linearGradient><linearGradient
       x1="0"
       y1="0"
       x2="1"
       y2="0"
       id="linearGradient231"
       gradientUnits="userSpaceOnUse"
       gradientTransform="matrix(0,-59.6296,59.8326,0,275.622,539.632)"
       spreadMethod="pad"><stop
         id="stop233"
         style="stop-color:#cfaa34;stop-opacity:1"
         offset="0" /><stop
         id="stop235"
         style="stop-color:#f5f2ca;stop-opacity:1"
         offset="1" /></linearGradient><linearGradient
       x1="0"
       y1="0"
       x2="1"
       y2="0"
       id="linearGradient253"
       gradientUnits="userSpaceOnUse"
       gradientTransform="matrix(0,-76.8459,77.1071,0,271.99,557.31)"
       spreadMethod="pad"><stop
         id="stop255"
         style="stop-color:#e8cb24;stop-opacity:1"
         offset="0" /><stop
         id="stop257"
         style="stop-color:#cfaa34;stop-opacity:1"
         offset="1" /></linearGradient><linearGradient
       x1="0"
       y1="0"
       x2="1"
       y2="0"
       id="linearGradient275"
       gradientUnits="userSpaceOnUse"
       gradientTransform="matrix(0,-281.631,282.581,0,295.047,540.163)"
       spreadMethod="pad"><stop
         id="stop277"
         style="stop-color:#ba8f2b;stop-opacity:1"
         offset="0" /><stop
         id="stop279"
         style="stop-color:#cd9c33;stop-opacity:1"
         offset="1" /></linearGradient><linearGradient
       x1="0"
       y1="0"
       x2="1"
       y2="0"
       id="linearGradient307"
       gradientUnits="userSpaceOnUse"
       gradientTransform="matrix(23.329,-11.6251,11.6645,23.2502,116.409,489.219)"
       spreadMethod="pad"><stop
         id="stop309"
         style="stop-color:#fbdd2a;stop-opacity:1"
         offset="0" /><stop
         id="stop311"
         style="stop-color:#a37f30;stop-opacity:1"
         offset="1" /></linearGradient><linearGradient
       x1="0"
       y1="0"
       x2="1"
       y2="0"
       id="linearGradient339"
       gradientUnits="userSpaceOnUse"
       gradientTransform="matrix(0,-14.9123,14.9637,0,115.339,508.405)"
       spreadMethod="pad"><stop
         id="stop341"
         style="stop-color:#fbdd2a;stop-opacity:1"
         offset="0" /><stop
         id="stop343"
         style="stop-color:#a37f30;stop-opacity:1"
         offset="1" /></linearGradient><linearGradient
       x1="0"
       y1="0"
       x2="1"
       y2="0"
       id="linearGradient355"
       gradientUnits="userSpaceOnUse"
       gradientTransform="matrix(0,-14.9123,14.9629,0,108.615,508.405)"
       spreadMethod="pad"><stop
         id="stop357"
         style="stop-color:#fbdd2a;stop-opacity:1"
         offset="0" /><stop
         id="stop359"
         style="stop-color:#a37f30;stop-opacity:1"
         offset="1" /></linearGradient><linearGradient
       x1="0"
       y1="0"
       x2="1"
       y2="0"
       id="linearGradient381"
       gradientUnits="userSpaceOnUse"
       gradientTransform="matrix(0,-14.5218,14.5706,0,97.6093,482.53)"
       spreadMethod="pad"><stop
         id="stop383"
         style="stop-color:#fbdd2a;stop-opacity:1"
         offset="0" /><stop
         id="stop385"
         style="stop-color:#a37f30;stop-opacity:1"
         offset="1" /></linearGradient><linearGradient
       x1="0"
       y1="0"
       x2="1"
       y2="0"
       id="linearGradient407"
       gradientUnits="userSpaceOnUse"
       gradientTransform="matrix(0,-9.83591,9.86932,0,94.4317,449.761)"
       spreadMethod="pad"><stop
         id="stop409"
         style="stop-color:#fbdd2a;stop-opacity:1"
         offset="0" /><stop
         id="stop411"
         style="stop-color:#a37f30;stop-opacity:1"
         offset="1" /></linearGradient><linearGradient
       x1="0"
       y1="0"
       x2="1"
       y2="0"
       id="linearGradient439"
       gradientUnits="userSpaceOnUse"
       gradientTransform="matrix(24.1838,6.02531,-6.04569,24.1024,109.009,434.053)"
       spreadMethod="pad"><stop
         id="stop441"
         style="stop-color:#fbdd2a;stop-opacity:1"
         offset="0" /><stop
         id="stop443"
         style="stop-color:#a37f30;stop-opacity:1"
         offset="1" /></linearGradient><linearGradient
       x1="0"
       y1="0"
       x2="1"
       y2="0"
       id="linearGradient469"
       gradientUnits="userSpaceOnUse"
       gradientTransform="matrix(-87.0792,0,0,-86.788,214.349,398.714)"
       spreadMethod="pad"><stop
         id="stop471"
         style="stop-color:#f6f7e8;stop-opacity:1"
         offset="0" /><stop
         id="stop473"
         style="stop-color:#cd9c33;stop-opacity:1"
         offset="1" /></linearGradient><linearGradient
       x1="-6.5092664"
       y1="-13.290362"
       x2="-2.8772588"
       y2="-10.706125"
       id="linearGradient491"
       gradientUnits="userSpaceOnUse"
       gradientTransform="matrix(-268.321,0,0,-267.404,344.801,407.827)"
       spreadMethod="pad"><stop
         id="stop493"
         style="stop-color:#e3aa31;stop-opacity:1"
         offset="0" /><stop
         id="stop495"
         style="stop-color:#fce24c;stop-opacity:1"
         offset="1" /></linearGradient><linearGradient
       x1="0"
       y1="0"
       x2="1"
       y2="0"
       id="linearGradient507"
       gradientUnits="userSpaceOnUse"
       gradientTransform="matrix(-274.41,0,0,-273.477,87.1088,520.798)"
       spreadMethod="pad"><stop
         id="stop509"
         style="stop-color:#0b3d1b;stop-opacity:1"
         offset="0" /><stop
         id="stop511"
         style="stop-color:#2b6b36;stop-opacity:1"
         offset="1" /></linearGradient><linearGradient
       x1="0"
       y1="0"
       x2="1"
       y2="0"
       id="linearGradient529"
       gradientUnits="userSpaceOnUse"
       gradientTransform="matrix(-274.376,0,0,-273.443,87.1259,329.741)"
       spreadMethod="pad"><stop
         id="stop531"
         style="stop-color:#0b3d1b;stop-opacity:1"
         offset="0" /><stop
         id="stop533"
         style="stop-color:#2b6b36;stop-opacity:1"
         offset="1" /></linearGradient><linearGradient
       x1="0"
       y1="0"
       x2="1"
       y2="0"
       id="linearGradient545"
       gradientUnits="userSpaceOnUse"
       gradientTransform="matrix(-274.376,0,0,-273.443,87.1259,429.377)"
       spreadMethod="pad"><stop
         id="stop547"
         style="stop-color:#0b3d1b;stop-opacity:1"
         offset="0" /><stop
         id="stop549"
         style="stop-color:#2b6b36;stop-opacity:1"
         offset="1" /></linearGradient><linearGradient
       x1="0"
       y1="0"
       x2="1"
       y2="0"
       id="linearGradient561"
       gradientUnits="userSpaceOnUse"
       gradientTransform="matrix(-274.376,0,0,-273.443,87.1259,494.718)"
       spreadMethod="pad"><stop
         id="stop563"
         style="stop-color:#0b3d1b;stop-opacity:1"
         offset="0" /><stop
         id="stop565"
         style="stop-color:#2b6b36;stop-opacity:1"
         offset="1" /></linearGradient><linearGradient
       x1="0"
       y1="0"
       x2="1"
       y2="0"
       id="linearGradient577"
       gradientUnits="userSpaceOnUse"
       gradientTransform="matrix(-274.479,0,0,-273.554,87.1174,499.549)"
       spreadMethod="pad"><stop
         id="stop579"
         style="stop-color:#0b3d1b;stop-opacity:1"
         offset="0" /><stop
         id="stop581"
         style="stop-color:#2b6b36;stop-opacity:1"
         offset="1" /></linearGradient><linearGradient
       x1="0"
       y1="0"
       x2="1"
       y2="0"
       id="linearGradient593"
       gradientUnits="userSpaceOnUse"
       gradientTransform="matrix(-274.325,0,0,-273.391,87.1346,471.25)"
       spreadMethod="pad"><stop
         id="stop595"
         style="stop-color:#0b3d1b;stop-opacity:1"
         offset="0" /><stop
         id="stop597"
         style="stop-color:#2b6b36;stop-opacity:1"
         offset="1" /></linearGradient><linearGradient
       x1="0"
       y1="0"
       x2="1"
       y2="0"
       id="linearGradient609"
       gradientUnits="userSpaceOnUse"
       gradientTransform="matrix(-274.393,0,0,-273.468,87.1259,436.468)"
       spreadMethod="pad"><stop
         id="stop611"
         style="stop-color:#0b3d1b;stop-opacity:1"
         offset="0" /><stop
         id="stop613"
         style="stop-color:#2b6b36;stop-opacity:1"
         offset="1" /></linearGradient><linearGradient
       x1="0"
       y1="0"
       x2="1"
       y2="0"
       id="linearGradient625"
       gradientUnits="userSpaceOnUse"
       gradientTransform="matrix(-274.385,0,0,-273.46,87.1088,400.804)"
       spreadMethod="pad"><stop
         id="stop627"
         style="stop-color:#0b3d1b;stop-opacity:1"
         offset="0" /><stop
         id="stop629"
         style="stop-color:#2b6b36;stop-opacity:1"
         offset="1" /></linearGradient><linearGradient
       x1="0"
       y1="0"
       x2="1"
       y2="0"
       id="linearGradient641"
       gradientUnits="userSpaceOnUse"
       gradientTransform="matrix(-280.26,0,0,-279.318,86.2267,485.597)"
       spreadMethod="pad"><stop
         id="stop643"
         style="stop-color:#0b3d1b;stop-opacity:1"
         offset="0" /><stop
         id="stop645"
         style="stop-color:#2b6b36;stop-opacity:1"
         offset="1" /></linearGradient><linearGradient
       x1="0"
       y1="0"
       x2="1"
       y2="0"
       id="linearGradient657"
       gradientUnits="userSpaceOnUse"
       gradientTransform="matrix(0,-31.7003,31.7003,0,160.039,507.728)"
       spreadMethod="pad"><stop
         id="stop659"
         style="stop-color:#fbdd2a;stop-opacity:1"
         offset="0" /><stop
         id="stop661"
         style="stop-color:#a37f30;stop-opacity:1"
         offset="1" /></linearGradient><linearGradient
       x1="0"
       y1="0"
       x2="1"
       y2="0"
       id="linearGradient679"
       gradientUnits="userSpaceOnUse"
       gradientTransform="matrix(66.2802,19.3052,-19.3052,66.2802,166.454,481.297)"
       spreadMethod="pad"><stop
         id="stop681"
         style="stop-color:#fbdd2a;stop-opacity:1"
         offset="0" /><stop
         id="stop683"
         style="stop-color:#d1ba34;stop-opacity:1"
         offset="1" /></linearGradient><linearGradient
       x1="0"
       y1="0"
       x2="1"
       y2="0"
       id="linearGradient3771"
       xlink:href="#linearGradient657"
       gradientUnits="userSpaceOnUse"
       gradientTransform="matrix(-4.3558274,0,0,4.3558274,79.341057,24.535844)"
       spreadMethod="pad" /><linearGradient
       x1="0"
       y1="0"
       x2="1"
       y2="0"
       id="linearGradient3776"
       xlink:href="#linearGradient641"
       gradientUnits="userSpaceOnUse"
       gradientTransform="matrix(0,-38.509547,-38.38011,0,76.300114,14.393554)"
       spreadMethod="pad" /><linearGradient
       x1="0"
       y1="0"
       x2="1"
       y2="0"
       id="linearGradient3781"
       xlink:href="#linearGradient625"
       gradientUnits="userSpaceOnUse"
       gradientTransform="matrix(0,-37.702284,-37.575183,0,64.649004,14.514761)"
       spreadMethod="pad" /><linearGradient
       x1="0"
       y1="0"
       x2="1"
       y2="0"
       id="linearGradient3786"
       xlink:href="#linearGradient609"
       gradientUnits="userSpaceOnUse"
       gradientTransform="matrix(0,-37.703383,-37.576282,0,69.549469,14.51711)"
       spreadMethod="pad" /><linearGradient
       x1="0"
       y1="0"
       x2="1"
       y2="0"
       id="linearGradient3791"
       xlink:href="#linearGradient593"
       gradientUnits="userSpaceOnUse"
       gradientTransform="matrix(0,-37.694039,-37.565702,0,74.328742,14.518306)"
       spreadMethod="pad" /><linearGradient
       x1="0"
       y1="0"
       x2="1"
       y2="0"
       id="linearGradient3796"
       xlink:href="#linearGradient577"
       gradientUnits="userSpaceOnUse"
       gradientTransform="matrix(0,-37.7152,-37.588099,0,78.217209,14.515942)"
       spreadMethod="pad" /><linearGradient
       x1="0"
       y1="0"
       x2="1"
       y2="0"
       id="linearGradient3801"
       xlink:href="#linearGradient561"
       gradientUnits="userSpaceOnUse"
       gradientTransform="matrix(0,-37.701047,-37.572847,0,77.553398,14.51711)"
       spreadMethod="pad" /><linearGradient
       x1="0"
       y1="0"
       x2="1"
       y2="0"
       id="linearGradient3806"
       xlink:href="#linearGradient545"
       gradientUnits="userSpaceOnUse"
       gradientTransform="matrix(0,-37.701047,-37.572847,0,68.57512,14.51711)"
       spreadMethod="pad" /><linearGradient
       x1="0"
       y1="0"
       x2="1"
       y2="0"
       id="linearGradient3815"
       xlink:href="#linearGradient507"
       gradientUnits="userSpaceOnUse"
       gradientTransform="matrix(0,-37.705719,-37.577519,0,81.13696,14.514761)"
       spreadMethod="pad" /><linearGradient
       x1="-17.808071"
       y1="-35.69503"
       x2="-12.283237"
       y2="-35.117832"
       id="linearGradient3824"
       xlink:href="#linearGradient469"
       gradientUnits="userSpaceOnUse"
       gradientTransform="matrix(0,-11.965248,-11.925236,0,64.361824,31.998392)"
       spreadMethod="pad" /><linearGradient
       x1="-284.90219"
       y1="58.555786"
       x2="-286.90475"
       y2="82.222931"
       id="linearGradient3837"
       xlink:href="#linearGradient407"
       gradientUnits="userSpaceOnUse"
       gradientTransform="matrix(-1.351518,0,0,1.3561088,71.376014,15.520975)"
       spreadMethod="pad" /><linearGradient
       x1="-173.73552"
       y1="45.113987"
       x2="-178.06281"
       y2="54.267078"
       id="linearGradient3843"
       xlink:href="#linearGradient381"
       gradientUnits="userSpaceOnUse"
       gradientTransform="matrix(-1.9953898,0,0,2.0020952,75.878688,15.957598)"
       spreadMethod="pad" /><linearGradient
       x1="-152.00127"
       y1="50.824661"
       x2="-157.27116"
       y2="55.772869"
       id="linearGradient3849"
       xlink:href="#linearGradient355"
       gradientUnits="userSpaceOnUse"
       gradientTransform="matrix(-2.049047,0,0,2.0559998,79.434081,17.469852)"
       spreadMethod="pad" /><linearGradient
       x1="-29.343561"
       y1="25.393435"
       x2="-37.14959"
       y2="24.338591"
       id="linearGradient3876"
       xlink:href="#linearGradient209"
       gradientUnits="userSpaceOnUse"
       gradientTransform="matrix(-9.2423188,0,0,9.27362,86.153946,34.656933)"
       spreadMethod="pad" /><linearGradient
       x1="-220.71603"
       y1="76.01088"
       x2="-226.85452"
       y2="95.995247"
       id="linearGradient3881"
       xlink:href="#linearGradient193"
       gradientUnits="userSpaceOnUse"
       gradientTransform="matrix(-2.2997177,0,0,2.3074949,58.312778,29.5057)"
       spreadMethod="pad" /><linearGradient
       x1="-217.34598"
       y1="91.192558"
       x2="-223.28444"
       y2="90.416794"
       id="linearGradient3891"
       xlink:href="#linearGradient145"
       gradientUnits="userSpaceOnUse"
       gradientTransform="matrix(-2.4324799,0,0,2.4407105,56.076624,32.486734)"
       spreadMethod="pad" /><linearGradient
       x1="-3.5425999"
       y1="-9.2591581"
       x2="-4.1100001"
       y2="-10.07875"
       id="linearGradient3896"
       xlink:href="#linearGradient129"
       gradientUnits="userSpaceOnUse"
       gradientTransform="matrix(0,-47.265502,-47.105423,0,69.431849,55.631074)"
       spreadMethod="pad" /><linearGradient
       x1="5.5632291"
       y1="7.2714767"
       x2="9.2101355"
       y2="7.3396964"
       id="linearGradient3901"
       xlink:href="#linearGradient209"
       gradientUnits="userSpaceOnUse"
       gradientTransform="matrix(0,47.474909,47.474909,0,67.758376,7.7818968)"
       spreadMethod="reflect" /><linearGradient
       x1="0"
       y1="0"
       x2="1"
       y2="0"
       id="linearGradient3911"
       xlink:href="#linearGradient69"
       gradientUnits="userSpaceOnUse"
       gradientTransform="matrix(0,-52.463727,-52.286061,0,65.721187,55.735778)"
       spreadMethod="pad" /><radialGradient
       cx="-10.289568"
       cy="5.4715519"
       r="1"
       fx="-10.289568"
       fy="5.4715519"
       id="radialGradient3916"
       xlink:href="#radialGradient53"
       gradientUnits="userSpaceOnUse"
       gradientTransform="matrix(-239.43312,0,0,272.08991,-1974.7999,-1243.401)"
       spreadMethod="pad" /><linearGradient
       x1="-34.428814"
       y1="31.283691"
       x2="-40.689064"
       y2="37.06097"
       id="linearGradient3940"
       xlink:href="#linearGradient231"
       gradientUnits="userSpaceOnUse"
       gradientTransform="matrix(-8.1934949,0,0,8.2213884,83.724874,40.4177)"
       spreadMethod="pad" /><linearGradient
       x1="-23.717121"
       y1="23.124687"
       x2="-31.00552"
       y2="29.00909"
       id="linearGradient3945"
       xlink:href="#linearGradient253"
       gradientUnits="userSpaceOnUse"
       gradientTransform="matrix(-10.559127,0,0,10.595017,86.153946,39.91864)"
       spreadMethod="pad" /><linearGradient
       x1="-15.266193"
       y1="8.3618937"
       x2="-7.2845869"
       y2="6.196012"
       id="linearGradient3950"
       xlink:href="#linearGradient275"
       gradientUnits="userSpaceOnUse"
       gradientTransform="matrix(-38.697931,0,0,38.828467,83.797837,43.086822)"
       spreadMethod="pad" /><linearGradient
       x1="0"
       y1="0"
       x2="1"
       y2="0"
       id="linearGradient3960"
       xlink:href="#linearGradient339"
       gradientUnits="userSpaceOnUse"
       gradientTransform="matrix(-2.049047,0,0,2.0561097,79.434081,18.393774)"
       spreadMethod="pad" /><linearGradient
       x1="-7.9411139"
       y1="-15.441092"
       x2="-5.9102774"
       y2="-12.169326"
       id="linearGradient3970"
       xlink:href="#linearGradient491"
       gradientUnits="userSpaceOnUse"
       gradientTransform="matrix(0,-36.869051,-36.743049,0,65.61401,49.923345)"
       spreadMethod="pad" /><linearGradient
       x1="0"
       y1="0"
       x2="1"
       y2="0"
       id="linearGradient3980"
       xlink:href="#linearGradient679"
       gradientUnits="userSpaceOnUse"
       gradientTransform="matrix(2.6526601,9.1073306,9.1073306,-2.6526601,75.709266,25.417307)"
       spreadMethod="pad" /><linearGradient
       x1="-5.0177321"
       y1="-7.2496095"
       x2="-1.7687317"
       y2="-7.8164072"
       id="linearGradient3983"
       xlink:href="#linearGradient97"
       gradientUnits="userSpaceOnUse"
       gradientTransform="matrix(-8.8008729,-49.912226,-49.912226,8.8008729,72.130376,56.498384)"
       spreadMethod="pad" /><linearGradient
       x1="-44.880096"
       y1="17.171688"
       x2="-50.618641"
       y2="25.75209"
       id="linearGradient3994"
       xlink:href="#linearGradient167"
       gradientUnits="userSpaceOnUse"
       gradientTransform="matrix(-11.633604,0,0,11.673026,56.223787,40.906043)"
       spreadMethod="pad" /><linearGradient
       x1="0"
       y1="0"
       x2="1"
       y2="0"
       id="linearGradient4009"
       xlink:href="#linearGradient529"
       gradientUnits="userSpaceOnUse"
       gradientTransform="matrix(0,-37.701047,-37.572847,0,54.884485,14.51711)"
       spreadMethod="pad" /><linearGradient
       x1="-6.9377518"
       y1="94.769753"
       x2="-15.106409"
       y2="110.70016"
       id="linearGradient4015"
       xlink:href="#linearGradient307"
       gradientUnits="userSpaceOnUse"
       gradientTransform="matrix(-1.5973644,3.2055563,3.1947287,1.6027782,76.7978,18.540799)"
       spreadMethod="pad" /><linearGradient
       x1="61.760136"
       y1="108.02695"
       x2="67.129074"
       y2="105.37894"
       id="linearGradient4027"
       xlink:href="#linearGradient439"
       gradientUnits="userSpaceOnUse"
       gradientTransform="matrix(0.8279168,3.3230114,3.3118265,-0.8307171,69.217633,17.523991)"
       spreadMethod="pad" /><inkscape:perspective
       id="perspective2630"
       inkscape:persp3d-origin="0.5 : 0.33333333 : 1"
       inkscape:vp_z="1 : 0.5 : 1"
       inkscape:vp_y="0 : 1000 : 0"
       inkscape:vp_x="0 : 0.5 : 1"
       sodipodi:type="inkscape:persp3d" /></defs><g
     inkscape:groupmode="layer"
     id="layer1"
     inkscape:label="Logo"><path
       style="fill:url(#radialGradient3916);fill-opacity:1;fill-rule:nonzero;stroke:none"
       d="M 694.09529,74.976398 C 632.84908,44.937 562.34443,28 488.946,28 C 415.29474,28 344.88765,45.044865 283.52328,75.251211 C 261.7416,127.86718 249.77761,185.26861 249.77761,245.38671 C 249.77761,305.46633 261.74159,362.84866 283.4848,415.44512 C 344.87803,445.6718 415.29474,462.70609 488.946,462.70609 C 562.35405,462.70609 632.86832,445.76936 694.11452,415.71993 C 715.93605,363.06439 727.9495,305.56526 727.9495,245.38671 C 727.9495,185.17106 715.92643,127.66108 694.09529,74.976404"
       id="path59" /><path
       style="fill:url(#linearGradient3911);fill-opacity:1;fill-rule:nonzero;stroke:none"
       d="M 683.63041,91.982652 L 679.50134,87.834075 C 698.90039,136.7916 709.52191,189.93768 709.52191,245.46641 C 709.52191,300.90718 698.94986,353.95434 679.61951,402.83258 C 622.39382,429.8041 556.90039,444.9353 488.946,444.9353 C 420.75665,444.9353 355.37176,429.71478 298.01966,402.57837 L 300.81451,405.44192 C 358.15699,432.57833 424.90495,449.08498 493.08468,449.08498 C 561.04044,449.08498 626.5325,433.96202 683.75819,406.99187 C 703.07892,358.11226 713.6606,305.05548 713.6606,249.62433 C 713.6606,194.09561 703.03907,140.9399 683.63041,91.98265"
       id="path75" /><path
       style="fill:url(#linearGradient3983);fill-opacity:1;fill-rule:nonzero;stroke:none"
       d="M 268.17497,234.89984 C 268.68203,223.43493 269.16344,211.95638 270.48196,200.54621 C 274.31311,163.68082 283.00683,127.32157 296.26455,92.7089 C 296.65631,88.628542 300.36843,86.435552 303.91498,85.360193 C 357.75693,60.882865 416.57191,47.649923 475.65694,45.921175 C 483.1735,45.739863 490.68754,45.622558 498.20554,45.860145 C 514.11842,46.092258 530.02002,47.351113 545.82193,49.270843 C 576.18443,53.075842 606.15599,59.966707 635.13151,69.802739 C 648.55495,74.433023 661.80225,79.61613 674.70226,85.563182 C 678.26521,86.375031 681.01831,89.166522 681.52055,92.804854 C 694.99982,128.26486 703.83791,165.49977 707.51247,203.26337 C 709.14977,219.7055 709.73993,236.23645 709.52049,252.75554 C 709.27165,266.81198 708.37328,280.87091 706.75716,294.8434 C 705.47031,306.12229 703.67518,317.35213 701.51179,328.4985 C 696.85517,352.30319 690.10134,375.69078 681.46214,398.34838 C 680.93614,402.4284 677.6265,404.20741 674.10277,405.4361 C 620.53057,429.74753 562.04139,442.89623 503.27658,444.75913 C 494.64899,445.00985 486.0194,445.05298 477.38979,444.84302 C 449.16408,444.10887 420.97722,440.82764 393.37201,434.84621 C 378.51047,431.65023 363.79037,427.75535 349.35551,422.98204 C 331.76096,417.32907 314.53529,410.49797 297.85477,402.53578 C 293.12827,389.98304 288.59158,377.34533 284.95671,364.4253 C 273.06318,323.53094 267.5037,280.84344 268.17497,238.27145 C 268.17497,237.14758 268.17497,236.02372 268.17497,234.89984 L 268.17497,234.89984 z M 272.70938,235.03725 C 272.4065,241.56348 272.62657,248.10326 272.60184,254.63429 C 273.60022,300.01668 281.87103,345.23751 297.18574,387.97535 C 298.51846,391.8005 300.00701,395.5685 301.41129,399.36742 C 309.40882,403.3286 317.69645,406.69136 325.95634,410.05251 C 342.25077,416.37474 358.86414,421.89533 375.80307,426.22223 C 409.62957,435.08472 444.52114,439.89287 479.477,440.60501 C 486.35924,440.79821 493.25127,440.78572 500.13178,440.583 C 552.65999,439.28072 605.0083,428.81321 653.85001,409.38095 C 661.30262,406.33837 668.7744,403.30949 675.99747,399.74651 C 678.52095,393.17596 681.19483,386.6617 683.21584,379.91449 C 686.81033,369.62685 689.72638,359.11347 692.44471,348.56575 C 694.78748,339.1897 696.81649,329.74309 698.53466,320.23229 C 700.46394,309.22842 702.04327,298.15747 703.10765,287.03327 C 703.95919,278.85364 704.3895,270.63478 704.8345,262.42503 C 705.13987,250.46631 705.39075,238.49088 704.76703,226.53143 C 702.9646,184.88404 694.92475,143.52078 681.02231,104.22204 C 679.5208,99.864674 677.79081,95.591096 676.22049,91.258798 C 672.91893,89.173055 669.16326,87.941861 665.66054,86.241199 C 614.42458,64.093573 558.95524,52.018779 503.19403,50.205438 C 497.91573,50.050252 492.6367,50.072833 487.36236,49.946515 C 481.27097,50.126205 475.17341,50.080165 469.0868,50.42693 C 435.65651,51.927298 402.37985,57.106977 370.11495,65.990357 C 348.05244,72.010853 326.48671,79.836483 305.65594,89.265189 C 302.63995,90.018373 300.68103,92.026516 300.09662,95.047222 C 283.62324,138.29655 274.38255,184.27707 272.78177,230.52505 L 272.70938,231.18987"
       id="path103" /><path
       style="fill:url(#linearGradient3901);fill-opacity:1;fill-rule:nonzero;stroke:none"
       d="M 677.5007,384.03262 C 693.1142,339.64482 701.0192,293.07089 701.0192,245.38671 C 701.0192,193.25193 691.49555,142.2645 672.75468,93.81607 C 616.3232,67.778084 552.7727,54.00844 488.946,54.00844 C 425.10144,54.00844 361.46162,67.866161 304.87487,94.061337 C 286.18209,142.42114 276.69829,193.33025 276.69829,245.38671 C 276.69829,297.40469 286.17247,348.29456 304.84464,396.64516 C 361.44238,422.84995 425.10144,436.69778 488.946,436.69778 C 552.61605,436.69778 616.03877,422.98736 672.41116,397.03677 L 674.76494,396.09554 L 678.1685,389.43682 L 677.5007,384.03262 z M 301.50017,91.070135 C 358.46066,64.433609 422.95378,49.899711 488.946,49.899711 C 554.8228,49.899711 619.31454,64.345669 676.11839,90.824864 C 695.20278,139.52791 705.27468,191.59481 705.27468,245.42655 C 705.27468,294.46281 696.9396,342.00821 681.0609,386.76838 C 680.25708,389.0246 676.89336,397.71419 676.00984,399.94017 C 619.21698,426.39092 554.7541,440.82685 488.946,440.82685 C 422.92355,440.82685 358.40158,426.28237 301.43284,399.60627 C 282.46525,351.04132 272.44144,299.11128 272.44144,245.42656 C 272.44144,191.68275 282.47486,139.69487 301.50017,91.07014"
       id="path119" /><path
       style="fill:url(#linearGradient3896);fill-opacity:1;fill-rule:nonzero;stroke:none"
       d="M 280.92492,248.11423 C 280.92492,196.05778 290.3991,145.14729 309.09188,96.78803 C 365.68,70.592856 429.31845,56.735135 493.16301,56.735135 C 555.53869,56.735135 617.65743,69.896617 673.12706,94.806905 C 672.99926,94.483313 672.88109,94.149964 672.75468,93.816067 C 616.3232,67.778084 552.7727,54.00844 488.946,54.00844 C 425.10144,54.00844 361.46162,67.866161 304.87487,94.061337 C 286.18209,142.42114 276.69829,193.33025 276.69829,245.38671 C 276.69829,297.40469 286.17247,348.29456 304.84464,396.64516 C 306.11978,397.24288 307.41414,397.82136 308.6989,398.39984 C 290.27131,350.33505 280.92492,299.78869 280.92492,248.11423"
       id="path135" /><path
       style="fill:url(#linearGradient3891);fill-opacity:1;fill-rule:nonzero;stroke:none"
       d="M 584.20443,255.00791 L 588.30464,255.89144 L 603.4757,249.68341 L 600.74955,248.23102 C 597.82691,249.42783 584.20443,255.00791 584.20443,255.00791"
       id="path151" /><path
       style="fill:url(#linearGradient3994);fill-opacity:1;fill-rule:nonzero;stroke:none"
       d="M 584.07253,254.96119 C 589.83839,254.7602 592.18077,260.75717 595.42046,264.56773 C 604.94485,278.23715 608.65045,294.78151 613.06528,310.61084 C 615.1843,317.06133 617.89975,324.01962 624.21276,327.42558 C 633.16662,333.32897 642.67803,338.33304 652.11818,343.35284 C 660.76846,355.01778 667.95768,367.72491 675.39393,380.19244 C 677.137,381.73796 679.1527,389.41102 677.50896,388.52032 C 670.31965,377.04473 663.81462,365.12002 656.21095,353.89389 C 653.47975,349.88824 651.46461,344.82405 646.46098,343.23899 C 636.8776,337.93844 626.86638,333.05496 618.28673,326.13775 C 611.36535,318.42242 609.89945,307.65826 606.99283,298.05134 C 602.97497,283.10949 597.0217,268.05941 585.85883,257.02229 C 585.44208,256.23296 584.72385,255.68063 584.07253,255.09861"
       id="path173" /><path
       style="fill:#f7f8e8;fill-opacity:1;fill-rule:nonzero;stroke:none"
       d="M 564.33545,201.37266 C 565.72738,202.61756 568.95369,205.30523 570.86638,208.37489 C 580.77202,215.38675 597.16049,229.55885 600.74955,248.23102 L 603.4757,249.68341 C 599.26831,220.57522 564.67897,201.55953 564.33545,201.37266"
       id="path183" /><path
       style="fill:url(#linearGradient3881);fill-opacity:1;fill-rule:nonzero;stroke:none"
       d="M 570.86638,208.37489 C 568.95369,205.30523 565.72738,202.61756 564.33545,201.37266 C 565.04172,203.0394 566.14922,205.13897 566.14922,205.13897 C 577.15273,220.91873 579.41856,233.59998 579.41856,241.5036 C 579.41856,245.85801 578.75214,248.79989 578.42786,249.95822 C 579.63429,251.28145 579.86925,252.36971 580.0259,253.06636 L 580.70332,250.59579 C 581.11553,249.13378 581.78196,246.02427 581.78196,241.5036 C 581.78196,233.68792 579.67277,222.01661 570.86639,208.37489"
       id="path199" /><path
       style="fill:url(#linearGradient3876);fill-opacity:1;fill-rule:nonzero;stroke:none"
       d="M 393.61062,266.42364 L 396.70914,266.15021 L 404.56467,265.42333 L 402.43624,263.23719 C 401.62279,263.30589 396.49341,263.78544 396.49341,263.78544 C 375.46746,265.70776 353.71464,267.35526 332.61862,275.47598 L 335.30629,277.05479 C 354.49923,270.02369 374.36821,268.17008 393.61062,266.42364"
       id="path215" /><path
       style="fill:url(#linearGradient3940);fill-opacity:1;fill-rule:nonzero;stroke:none"
       d="M 354.60366,283.67915 C 355.44209,284.02348 356.15612,284.59673 356.95543,285.0148 C 357.66528,285.70073 357.93442,286.6859 358.46161,287.49802 C 360.93924,291.89043 363.66912,296.14036 366.60641,300.23921 C 369.17566,303.80287 371.88635,307.26998 374.81963,310.54195 C 375.46797,311.19507 376.02305,311.93249 376.69262,312.56445 C 377.3255,313.2273 377.88447,313.95611 378.56135,314.57716 C 379.10277,315.09257 379.58596,315.67353 380.20135,316.10316 C 381.00429,316.79328 381.6571,317.64884 382.52351,318.26602 C 383.90595,319.59846 385.42122,320.77917 386.95417,321.93115 C 387.95501,322.71395 388.9689,323.48035 390.0461,324.15649 C 391.10456,324.82482 392.14167,325.53184 393.23231,326.14599 C 395.21795,327.22219 397.2175,328.29525 399.35056,329.05404 C 400.43285,329.52015 401.54382,329.92408 402.69723,330.17372 C 404.87277,330.75149 407.02585,331.43939 409.08556,332.35107 C 409.71167,332.68477 410.39129,332.95541 410.92858,333.42828 C 411.49622,333.98314 411.7111,334.77075 412.0894,335.44902 C 413.16664,337.65379 414.31686,339.82157 415.43448,342.0057 C 417.16918,345.44689 418.87083,348.90466 420.60964,352.34381 C 419.97644,352.46095 419.77497,351.58689 419.32074,351.28859 C 418.58906,350.41631 417.74614,349.64608 416.94146,348.84556 C 416.54404,348.27671 416.05241,347.79523 415.55326,347.31845 C 415.11417,346.79061 414.92384,346.11119 414.55365,345.53504 C 413.93424,344.3742 413.33455,343.20397 412.71473,342.04347 C 412.06456,340.70851 411.29411,339.43675 410.66883,338.08894 C 410.19671,337.25275 409.74672,336.40159 409.30912,335.5489 C 408.82144,334.95657 408.03834,334.77103 407.38469,334.42649 C 405.73568,333.71246 404.01537,333.18365 402.28552,332.70671 C 401.50677,332.48557 400.71249,332.31823 399.9585,332.01529 C 398.76737,331.55804 397.578,331.09557 396.38943,330.63225 C 395.31736,330.19389 394.35338,329.54274 393.29919,329.06668 C 392.25586,328.56997 391.24596,328.00402 390.29991,327.3397 C 388.58205,326.25268 386.86404,325.15455 385.29765,323.85357 C 383.95597,322.84924 382.6612,321.78386 381.42039,320.65752 C 380.01187,319.45046 378.66425,318.17343 377.38903,316.82645 C 376.71513,316.16061 375.99917,315.5252 375.44601,314.75168 C 374.99623,314.26587 374.44083,313.87264 374.09022,313.30147 C 370.16826,308.93307 366.63995,304.22217 363.41737,299.31816 C 360.74599,295.31483 358.31285,291.15205 356.122,286.86729 C 355.68879,285.92071 355.16738,285.01256 354.74383,284.0647 C 354.70812,284.01628 354.66007,283.97602 354.60366,283.95397"
       id="path237" /><path
       style="fill:url(#linearGradient3945);fill-opacity:1;fill-rule:nonzero;stroke:none"
       d="M 332.61862,275.43476 C 333.39175,275.72869 334.02305,276.2939 334.78579,276.61411 C 335.55442,276.93178 335.49566,277.80836 335.6551,278.48405 C 335.71869,279.23796 335.90798,279.93507 336.02957,280.67873 C 336.17635,281.42445 336.23439,282.19182 336.46967,282.91853 C 337.37044,284.02554 338.30721,285.10306 339.22633,286.19431 C 339.72072,286.82296 340.25383,287.42523 340.76759,288.03465 C 341.27658,288.62532 341.76958,289.22606 342.31538,289.78102 C 342.7954,290.46562 343.48747,290.9549 343.96416,291.64135 C 344.33314,292.1266 344.8565,292.45418 345.20338,292.96001 C 345.68462,293.58673 346.31221,294.07512 346.77975,294.71241 C 347.77306,295.79417 348.8534,296.79459 349.87859,297.84703 C 351.42847,299.39392 352.97286,300.95103 354.52112,302.49674 C 355.62574,303.38369 356.58134,304.44338 357.59894,305.41686 C 358.30604,305.88727 358.80422,306.59578 359.50121,307.07826 C 360.02836,307.66236 360.67135,308.07029 361.2139,308.62885 C 361.76929,309.21226 362.45907,309.64623 362.98461,310.26638 C 363.66574,310.82779 364.36738,311.37544 365.00781,311.98506 C 366.35428,313.06845 367.64108,314.22305 368.97488,315.3221 C 369.5729,315.87078 370.24797,316.31683 370.84192,316.87149 C 371.6197,317.38812 372.28498,318.05433 373.03876,318.60257 C 373.68521,319.15533 374.39036,319.64003 375.01979,320.21054 C 376.19547,321.03336 377.28473,321.97371 378.45608,322.80185 C 379.47308,323.61685 380.52746,324.39129 381.58662,325.1454 C 383.39645,326.48713 385.21953,327.81342 387.05512,329.12047 C 387.84899,329.68358 388.68172,330.18386 389.44963,330.78327 C 390.19582,331.27864 390.90794,331.83054 391.67544,332.29858 C 392.97138,333.16619 394.27479,334.02334 395.56492,334.89829 C 396.7605,335.70486 397.98001,336.47731 399.19656,337.2524 C 399.78057,337.58484 400.31964,338.00089 400.88135,338.35666 C 401.55912,338.70201 402.17515,339.15772 402.82399,339.55216 C 404.45919,340.58946 406.1375,341.55861 407.79113,342.56401 C 408.82427,343.21014 409.90512,343.78384 410.94603,344.41614 C 411.60875,344.78163 412.25869,345.16898 412.92136,345.5346 C 413.76393,346.04621 414.63717,346.50579 415.48235,347.01046 C 416.31857,347.63703 416.88525,348.54044 417.63319,349.26094 C 418.25773,349.91714 418.98986,350.48299 419.49796,351.24343 C 419.75645,351.71361 420.51854,351.97107 420.55223,352.49024 C 419.83872,352.37217 419.2312,351.86629 418.58501,351.55145 C 417.78962,351.08901 416.91688,350.76567 416.15633,350.24391 C 415.50663,349.98506 414.94011,349.57456 414.31731,349.27257 C 412.77373,348.37167 411.18031,347.55178 409.66631,346.60137 C 408.78454,346.14958 407.96936,345.58346 407.09235,345.12158 C 405.61283,344.21871 404.1193,343.3381 402.6496,342.41933 C 401.93892,342.01445 401.28083,341.52937 400.55698,341.14268 C 399.71946,340.53966 398.77444,340.09248 397.9643,339.44536 C 396.44309,338.58424 395.04899,337.52197 393.5452,336.63201 C 392.50234,335.91362 391.42684,335.24236 390.41542,334.48095 C 389.3685,333.82376 388.36585,333.10286 387.34992,332.39986 C 385.97343,331.4201 384.56292,330.48078 383.21366,329.46126 C 382.22061,328.75692 381.2257,328.0574 380.26772,327.30304 C 379.38906,326.68619 378.51844,326.05896 377.67472,325.39537 C 377.0406,324.9899 376.52727,324.4366 375.89389,324.03304 C 374.1046,322.69113 372.3525,321.29998 370.59672,319.91642 C 369.96792,319.42421 369.3824,318.87789 368.7414,318.40182 C 368.10711,317.92346 367.51993,317.34857 366.86161,316.88054 C 366.20947,316.34009 365.57075,315.7792 364.92161,315.2382 C 364.29791,314.65643 363.59117,314.17092 362.98642,313.5668 C 362.00641,312.81293 361.1507,311.91219 360.16105,311.17098 C 359.66104,310.51 358.88439,310.13465 358.38154,309.47963 C 357.83946,309.07666 357.33573,308.63584 356.87897,308.13876 C 356.30764,307.64653 355.68843,307.2018 355.22237,306.60021 C 354.46789,305.90393 353.662,305.26313 352.9608,304.50905 C 352.26654,303.83841 351.64451,303.08858 350.86486,302.51474 C 349.70149,301.43393 348.62444,300.26208 347.47182,299.17262 C 346.93032,298.51372 346.36527,297.878 345.74451,297.29202 C 345.15676,296.66385 344.48686,296.11149 343.98506,295.40945 C 343.51548,294.8558 342.92912,294.41703 342.50625,293.82381 C 342.04879,293.25685 341.45108,292.81409 341.05262,292.20251 C 340.49589,291.63844 339.94619,291.07103 339.45872,290.44432 C 338.42443,289.27007 337.40674,288.08542 336.39902,286.88869 C 335.70533,286.01842 334.98447,285.16559 334.28378,284.29879 C 333.77025,283.67301 333.98509,282.78036 333.69969,282.05934 C 333.52907,280.99956 333.35208,279.94284 333.1421,278.8892 C 333.00296,278.01843 332.79866,277.14791 332.70369,276.27285 L 332.67204,276.25699 L 332.61862,276.2592"
       id="path259" /><path
       style="fill:url(#linearGradient3950);fill-opacity:1;fill-rule:nonzero;stroke:none"
       d="M 354.60366,283.67915 C 357.01797,283.64932 359.43553,283.6798 361.83629,283.79774 C 367.30526,283.8872 372.75319,284.54646 378.13893,285.47458 C 381.55531,286.09689 384.96462,286.80184 388.33799,287.63696 C 399.77385,290.49843 410.86723,294.51418 422.10224,298.04657 C 428.47844,300.05308 434.9355,301.83384 441.51459,303.04147 C 446.05277,303.89397 450.66357,304.34192 455.2761,304.44247 C 457.6001,304.51521 459.92957,304.68545 462.24689,304.43215 C 464.29985,304.42693 466.33757,304.2645 468.38922,304.15899 C 478.93469,303.40402 489.39177,301.76057 499.88401,300.49568 C 506.18444,299.83703 512.50734,299.41592 518.84282,299.32588 C 522.52996,299.40857 526.23924,299.24723 529.91352,299.40751 C 531.66161,299.51726 533.41138,299.51245 535.15283,299.61697 C 537.12306,299.86678 539.15542,299.60087 541.05772,300.06491 C 542.864,300.99276 543.62476,303.04099 545.0997,304.35657 C 548.27748,308.00541 551.64701,311.47119 555.13794,314.8156 C 559.41134,318.7548 563.86152,322.58888 568.87615,325.5789 C 572.53065,327.771 576.469,329.42378 580.3854,331.08224 C 584.13173,332.6052 587.9508,334.00658 591.73235,335.45572 C 597.53697,337.52845 603.35068,339.58019 609.21158,341.49415 C 619.36386,344.92695 629.60489,348.06393 639.82343,351.29268 C 642.11104,351.60885 643.16859,353.91373 644.75011,355.30004 C 652.64295,364.05969 660.04197,373.27355 666.66731,383.03179 C 669.22229,386.73907 671.55647,390.5957 673.85273,394.46309 C 675.42882,395.6607 674.1389,397.22341 672.50338,396.89421 C 671.07685,395.66054 670.61317,393.59196 669.41981,392.10964 C 665.24805,385.21557 660.56935,378.64756 655.63453,372.27818 C 651.27035,366.67979 646.69922,361.23993 641.92066,355.99045 C 640.75986,354.2478 638.83205,353.40571 636.85167,353.02956 C 631.822,351.45557 626.76676,349.94877 621.77584,348.26168 C 616.54953,346.69626 611.3764,344.91002 606.18559,343.2157 C 598.95591,340.73146 591.71221,338.248 584.57855,335.48426 C 580.91351,334.06299 577.26477,332.58155 573.68007,330.95921 C 566.52983,327.81106 560.27127,323.00741 554.55589,317.74473 C 553.0626,316.48426 551.78109,314.98827 550.31577,313.70459 C 548.21272,311.45948 546.02322,309.30045 543.9991,306.98434 C 542.67366,305.70028 541.72374,304.07175 540.38107,302.82962 C 538.70241,301.8194 536.66476,302.52349 534.81283,302.16842 C 532.13706,302.03511 529.46361,301.89446 526.78245,301.94294 C 521.24874,301.55415 515.70739,302.02658 510.17496,302.17844 C 504.44194,302.63641 498.70991,303.13211 493.00958,303.91482 C 485.76747,304.86336 478.51837,305.85421 471.24523,306.45484 C 468.05766,306.6921 464.8701,306.93122 461.67189,306.95151 C 457.29606,307.23305 452.9221,306.85386 448.55375,306.61216 C 445.43241,306.13899 442.27692,305.87922 439.19578,305.15127 C 434.67308,304.33808 430.25195,303.07984 425.83049,301.85023 C 413.77468,298.27978 401.98094,293.87606 389.87456,290.47 C 382.21377,288.36055 374.42903,286.5969 366.50521,285.85641 C 364.82969,285.61906 363.12289,285.56092 361.43969,285.4769 C 359.83591,285.38543 358.13389,285.58982 356.6104,285.0529 C 355.90711,284.69717 355.3254,284.13926 354.60366,283.81656"
       id="path281" /><path
       style="fill:#f7f8e8;fill-opacity:1;fill-rule:nonzero;stroke:none"
       d="M 391.2857,141.31365 C 391.33517,141.28342 391.42311,141.24494 391.50143,141.2051 C 395.2966,138.96922 399.28826,136.84093 402.96663,135.14437 L 404.82986,134.29094 C 404.16344,133.57491 403.58358,133.18248 401.98555,132.98668 C 393.69856,136.80122 384.78362,142.77428 378.92873,147.47221 L 379.41927,148.07954 C 382.18527,146.44166 389.1188,142.49947 391.2857,141.31365"
       id="path291" /><path
       style="fill:url(#linearGradient4015);fill-opacity:1;fill-rule:nonzero;stroke:none"
       d="M 379.33684,147.92154 C 382.0345,146.49617 384.60729,144.94093 387.28743,143.47119 C 389.95721,141.6194 393.05864,140.76386 396.14147,139.88946 C 399.74554,138.85953 403.36234,137.93319 407.04379,137.10289 C 414.24439,135.47623 421.58626,134.29246 428.97262,133.88585 C 434.6916,133.57697 440.49232,133.72788 446.07122,135.11967 C 449.51905,135.99856 452.97852,137.4325 455.41601,140.10485 C 457.15394,142.023 458.57243,144.96936 458.12608,147.4383 C 457.01444,146.23669 455.04735,147.33234 455.40635,144.88358 C 454.03144,140.97943 450.02525,138.87988 446.29085,137.68204 C 441.54669,136.40146 436.61035,136.01538 431.70152,136.10457 C 428.80253,136.27557 425.89209,136.41053 422.96628,136.77924 C 416.18806,137.5443 409.48691,138.90695 402.877,140.58539 C 398.15613,141.85815 393.42593,143.16607 388.81466,144.7923 C 385.5962,145.75291 382.47531,147.09473 379.33684,148.19633"
       id="path313" /><path
       style="fill:#f7f8e8;fill-opacity:1;fill-rule:nonzero;stroke:none"
       d="M 397.67098,122.54158 C 402.3483,124.62096 406.00606,127.46513 408.06578,130.87776 L 409.01801,132.46646 L 410.78368,131.92713 C 420.11908,129.0732 424.41441,128.34756 431.82886,127.75932 L 434.13455,127.58262 C 433.86935,126.86673 432.96659,125.30744 431.64337,125.38576 C 423.99395,126.00354 419.52136,126.76848 410.08703,129.65182 C 406.11461,123.04188 397.10212,118.29545 385.78394,116.92234 L 385.58745,117.82469 C 386.43113,118.11874 387.93161,118.68774 389.48155,119.54063 C 392.65839,120.45259 394.02284,120.75695 397.67098,122.54158"
       id="path323" /><path
       style="fill:url(#linearGradient3960);fill-opacity:1;fill-rule:nonzero;stroke:none"
       d="M 403.38297,134.86791 L 403.52038,134.86791 L 403.52038,134.7305 L 403.79519,134.7305 L 403.79519,134.5931 L 404.07,134.5931 L 404.07,134.45569 L 404.34482,134.45569 L 404.34482,134.31828 L 404.75704,134.31828 L 404.75704,134.18088 L 404.89444,134.18088 L 404.89444,134.45569 L 404.48222,134.45569 L 404.48222,134.5931 L 404.20741,134.5931 L 404.20741,134.7305 L 403.9326,134.7305 L 403.9326,134.86791 L 403.65778,134.86791 L 403.65778,135.00532 L 403.38297,135.00532"
       id="path345" /><path
       style="fill:url(#linearGradient3849);fill-opacity:1;fill-rule:nonzero;stroke:none"
       d="M 397.67098,122.54158 C 394.02284,120.75695 392.65839,120.45314 389.48155,119.54063 C 392.70786,121.23732 399.89697,125.8469 401.98555,132.98668 C 403.58358,133.18248 404.16344,133.57491 404.82986,134.29094 L 404.25138,132.31943 C 403.06419,128.25948 400.4911,125.02189 397.6674,122.53085"
       id="path361" /><path
       style="fill:#f7f8e8;fill-opacity:1;fill-rule:nonzero;stroke:none"
       d="M 425.13992,104.58475 C 433.56568,109.90019 439.62668,117.3244 441.9887,125.66057 L 442.46962,127.34765 L 444.20644,127.38681 C 451.33509,127.56338 454.53254,127.83764 459.9175,130.09358 L 462.06517,130.98563 C 461.90852,129.32823 461.59386,128.24986 460.81889,127.89673 C 454.93514,125.44485 451.30624,125.18982 444.26415,125.01325 C 440.84136,112.9403 430.30915,102.66271 415.96116,97.474515 L 415.55856,98.268999 C 416.4517,98.906565 417.48088,99.632209 418.97174,101.06371 C 420.99161,102.11308 423.74799,103.653 425.13992,104.58475"
       id="path371" /><path
       style="fill:url(#linearGradient3843);fill-opacity:1;fill-rule:nonzero;stroke:none"
       d="M 431.64199,125.38576 C 432.96659,125.30744 433.86935,126.86673 434.13455,127.58262 L 434.00676,125.26828 C 433.53545,116.72599 429.28959,109.606 425.13992,104.58475 C 423.74799,103.653 420.99161,102.11308 418.97174,101.06371 C 422.00292,103.89827 431.02504,114.19579 431.64199,125.38576"
       id="path387" /><path
       style="fill:#f7f8e8;fill-opacity:1;fill-rule:nonzero;stroke:none"
       d="M 474.30396,125.75882 C 474.30396,127.67124 474.2064,129.53434 474.04976,131.35868 C 474.91267,132.51592 476.17681,132.78057 476.49147,130.59333 C 476.60827,129.01467 476.67697,127.39643 476.67697,125.75882 C 476.67697,111.6065 471.93095,95.738659 453.90459,86.50027 L 453.41543,87.186752 C 454.30719,88.059559 455.31713,89.432524 455.9547,90.374034 C 457.80831,91.599837 459.30879,92.678753 460.36819,93.600338 C 469.57718,101.09325 474.30396,111.8324 474.30396,125.75882"
       id="path397" /><path
       style="fill:url(#linearGradient3837);fill-opacity:1;fill-rule:nonzero;stroke:none"
       d="M 460.36819,93.600338 C 459.45582,92.806541 457.63243,91.501729 455.9547,90.374034 C 458.97627,95.032389 463.72229,103.9568 463.72229,114.21557 C 463.72229,118.51118 462.88823,123.12075 460.81889,127.89673 C 461.59386,128.24986 461.90852,129.32878 462.06517,130.98563 L 462.98716,128.8381 C 465.04689,124.09112 466.08568,119.16812 466.08568,114.21557 C 466.08568,105.85961 463.20289,98.661291 460.3682,93.600335"
       id="path413" /><path
       style="fill:#f7f8e8;fill-opacity:1;fill-rule:nonzero;stroke:none"
       d="M 467.4886,157.19097 C 467.4886,157.20059 467.50784,157.20059 467.49822,157.21021 L 471.70561,156.35691 C 471.88286,156.32806 487.48537,153.18969 501.55854,151.12997 C 504.13766,149.81636 507.43404,147.9229 507.43404,147.9229 C 491.94833,149.85484 471.2343,154.03337 471.2343,154.03337 C 469.83275,154.26833 468.21411,155.73858 467.4886,157.19097"
       id="path423" /><path
       style="fill:url(#linearGradient4027);fill-opacity:1;fill-rule:nonzero;stroke:none"
       d="M 467.41441,156.99036 C 470.76347,149.18291 472.9842,140.87926 473.84447,132.423 C 473.48699,131.74489 474.15031,130.67892 474.67281,131.6874 C 475.27373,132.88675 476.08663,131.36502 476.47711,130.97645 C 476.51541,132.44158 476.21439,133.90276 476.05791,135.35898 C 475.21097,141.50945 473.73177,147.5795 471.55653,153.39709 C 470.38464,154.91303 468.23647,155.44202 467.41441,157.26517"
       id="path445" /><path
       style="fill:#f7f8e8;fill-opacity:1;fill-rule:nonzero;stroke:none"
       d="M 458.03366,145.31355 C 458.02404,145.27508 458.02404,145.23523 458.01442,145.19676 L 458.0048,145.20637 C 458.01442,145.23523 458.02404,145.27508 458.03366,145.31355"
       id="path455" /><path
       style="fill:#f7f8e8;fill-opacity:1;fill-rule:nonzero;stroke:none"
       d="M 458.27962,147.49144 C 457.65167,146.61891 456.46448,146.30425 455.88599,146.83464 C 455.92584,147.16854 455.93546,147.51068 455.93546,147.86382 C 455.93546,150.71775 454.82659,154.06223 452.63083,157.8574 C 435.49624,161.63332 409.9194,168.90075 388.85361,176.80575 L 391.80647,178.25676 C 413.10723,170.42047 437.74284,163.56526 453.14061,160.18231 L 454.16017,159.95696 L 454.67957,159.0542 C 457.08281,154.88666 458.29885,151.12997 458.29885,147.86382 C 458.29885,147.7374 458.28923,147.61923 458.27962,147.49144"
       id="path457" /><path
       style="fill:#f7f8e8;fill-opacity:1;fill-rule:nonzero;stroke:none"
       d="M 458.19168,146.2754 C 458.22053,146.50074 458.23977,146.72609 458.26038,146.95281 C 458.23977,146.72609 458.22053,146.50074 458.19168,146.2754"
       id="path459" /><path
       style="fill:url(#linearGradient3824);fill-opacity:1;fill-rule:nonzero;stroke:none"
       d="M 578.42786,249.95822 C 574.46643,248.52507 548.9473,240.26832 490.88893,242.44484 C 482.35598,242.7595 470.16528,242.36651 462.85937,235.27634 C 458.75092,231.2943 456.67059,225.55758 456.67059,218.22144 C 456.67059,218.19258 456.67059,218.15274 456.67059,218.12388 C 456.71043,198.02818 465.18429,170.83269 466.40034,167.03752 L 481.57139,168.89113 C 499.58676,158.85771 506.46258,149.23651 507.43404,147.9229 C 507.43404,147.9229 504.13903,149.81636 501.55854,151.12997 C 497.69467,155.12163 491.23244,160.69209 481.06161,166.43018 C 479.63946,166.25293 464.74184,164.43779 464.74184,164.43779 L 464.14413,166.31201 C 462.50624,171.43041 454.34704,197.9691 454.29758,218.22144 C 454.29758,226.22399 456.6225,232.54057 461.21188,236.98292 C 469.17596,244.70105 482.01247,245.15174 490.97687,244.81922 C 548.16271,242.67018 573.1913,250.5848 577.62404,252.19383 L 580.0259,253.06636 C 579.86926,252.36971 579.63429,251.28145 578.42786,249.95822"
       id="path475" /><path
       style="fill:url(#linearGradient3970);fill-opacity:1;fill-rule:nonzero;stroke:none"
       d="M 335.22934,276.94623 C 339.62924,275.49032 344.02105,274.01412 348.53587,272.94303 C 364.85467,268.78544 381.69136,267.42062 398.41394,265.93147 C 400.40501,265.13712 404.5386,266.7938 404.71051,263.6261 C 405.36812,257.78035 406.26449,251.9701 407.36188,246.19147 C 408.96573,238.20741 410.97343,230.30452 413.52442,222.56452 C 414.82102,218.5286 416.29407,214.53704 417.88385,210.61594 C 419.92583,205.32355 422.49263,200.26148 424.82767,195.10057 C 425.77468,192.54925 423.95816,189.62103 421.23063,189.37414 C 412.28051,187.47894 403.28537,185.75933 394.33666,183.83709 C 392.75305,183.06959 391.95109,180.11048 392.07774,178.24044 C 394.16523,177.08016 396.72703,176.46247 399.02574,175.5962 C 406.26043,173.03309 413.58248,170.74723 420.94021,168.56444 C 431.63714,165.36001 442.43944,162.49468 453.33668,160.05462 C 455.65205,158.67558 456.0094,155.68051 457.16533,153.45384 C 458.78814,149.17245 458.67205,143.85857 455.38746,140.36837 C 451.72042,136.33697 446.08549,135.0255 440.88394,134.33344 C 434.01095,133.48505 427.05685,133.97835 420.21855,134.84815 C 410.46289,136.15695 400.8991,138.58857 391.49715,141.45054 C 389.98719,141.65591 393.85051,139.8353 394.69368,139.28646 C 397.24405,137.87341 399.83449,136.49141 402.46458,135.27096 C 405.77874,134.9866 404.08063,131.82602 403.22483,129.98235 C 402.10123,127.21578 399.69554,124.67479 397.67794,122.54883 C 399.71283,123.36957 402.10349,124.86155 403.78367,126.09662 C 405.55041,127.53347 407.27634,129.06371 408.21928,131.1859 C 409.67477,133.37443 412.33443,130.9246 414.29939,130.80139 C 420.27704,129.03577 426.46118,127.93425 432.69189,127.69302 C 435.66455,126.96661 433.11614,123.04492 433.31733,120.94953 C 432.25145,115.5378 429.55886,110.55406 426.26642,106.18791 C 425.56457,105.46919 424.95056,104.04414 426.32986,105.32534 C 432.73563,109.48278 438.05285,115.43662 441.02349,122.5101 C 441.89826,124.49354 441.77928,128.23051 445.03292,127.31307 C 449.87435,127.4354 454.80326,127.80966 459.3141,129.72868 C 461.16932,131.24626 463.13774,130.50946 463.15184,127.98698 C 465.97774,121.41946 466.71788,113.95454 465.25138,106.94411 C 464.43894,102.97451 463.11762,99.069077 461.25651,95.486938 C 460.37965,94.483051 460.34275,92.877045 461.56026,94.578144 C 468.45515,100.46469 472.65683,109.13337 473.80665,118.06246 C 474.26228,120.92832 474.36503,123.85328 474.32898,126.7551 C 474.24872,135.78983 472.23386,144.75085 469.12861,153.21145 C 468.75015,154.45071 466.55239,158.02852 469.2664,156.77613 C 479.39738,154.67819 489.60099,152.93351 499.81237,151.28878 C 500.90691,151.13832 502.27445,151.04551 500.75344,152.03808 C 495.14528,157.63348 488.59651,162.20237 481.73128,166.11996 C 478.83631,166.84267 475.93765,165.56301 473.02712,165.51136 C 470.40906,165.20074 467.78598,164.92543 465.17861,164.53158 C 463.63247,166.60505 463.5276,169.3375 462.58914,171.68958 C 458.74198,185.35429 455.41972,199.28617 454.54403,213.49581 C 453.96866,220.32437 454.57543,227.67514 458.46762,233.52421 C 460.64338,236.73312 463.69144,239.30481 467.16967,241.02422 C 475.35195,245.00932 484.703,245.02469 493.60569,244.67325 C 499.4285,244.53717 505.25045,244.32138 511.07744,244.37686 C 518.13503,244.4089 525.19277,244.63511 532.24145,244.95697 C 546.30351,245.885 560.43949,247.26734 574.07972,250.97961 C 576.48543,251.20917 580.36105,254.63789 580.68987,250.48459 C 582.8236,241.31056 581.33639,231.67504 578.13845,222.93647 C 576.33514,218.04371 573.85986,213.42746 571.13194,208.99493 C 571.10469,207.81309 573.395,210.38856 574.1552,210.66895 C 577.92595,213.67198 581.6667,216.75522 584.93738,220.30501 C 588.00145,223.34491 590.68467,226.78121 593.18156,230.29067 C 596.72547,235.74436 599.59922,241.72808 600.78032,248.16423 C 597.81043,249.75168 594.55923,250.74584 591.48756,252.12495 C 589.0938,253.03919 586.73118,254.0453 584.38087,255.07412 C 589.03215,259.75709 593.23817,264.92142 596.47645,270.69869 C 602.7019,281.44319 606.01848,293.50625 609.14192,305.43453 C 611.0111,311.84653 612.72031,318.56072 616.74072,324.02667 C 619.19364,327.27945 622.77311,329.33205 626.12682,331.51392 C 633.77756,336.15143 641.58664,340.52769 649.52456,344.65822 C 652.01661,345.99089 652.86626,348.99648 654.64025,351.0482 C 661.82785,361.91218 668.50178,373.10836 675.09208,384.3415 C 675.65885,386.55817 679.10038,388.4092 677.6018,390.78553 C 676.47148,392.30603 676.07793,394.90734 674.5702,395.83688 C 673.03652,393.81344 671.96513,391.41121 670.50714,389.2971 C 662.63182,376.62924 653.22948,364.96906 643.258,353.9003 C 641.21888,351.13337 637.60548,350.91723 634.61972,349.83709 C 619.34005,345.09421 604.1062,340.19015 589.09119,334.658 C 582.45335,332.0808 575.70251,329.67359 569.48793,326.14981 C 561.07709,321.18908 554.00972,314.29217 547.38153,307.20113 C 545.4906,305.12512 543.62177,303.05326 541.90425,300.83896 C 539.96959,299.32673 537.19956,300.2067 534.90357,299.75375 C 528.34945,299.43073 521.77098,299.42569 515.20941,299.52324 C 506.63726,299.82006 498.1077,300.78406 489.61629,301.96289 C 480.3541,303.15955 471.07326,304.399 461.7259,304.61772 C 458.14036,304.8411 454.56202,304.53055 450.97964,304.39677 C 437.31868,303.39682 424.2297,298.99646 411.31807,294.72063 C 403.62128,292.24138 395.94439,289.66771 388.07753,287.75332 C 381.1619,286.00009 374.11417,284.77798 367.003,284.18966 C 363.43318,283.90597 359.84973,283.86792 356.27195,283.77677 C 353.57739,283.93285 356.90601,287.06134 357.20138,288.53925 C 362.66361,298.64458 369.26059,308.21498 377.2994,316.44482 C 382.83377,322.18136 389.27261,327.17849 396.56337,330.48386 C 400.15534,332.21731 404.1391,332.80831 407.7819,334.39651 C 410.07554,335.13131 410.42642,337.76819 411.63952,339.51075 C 412.73124,341.99858 414.30649,344.26446 415.32131,346.77447 C 413.81547,346.6852 411.81791,344.90701 410.13329,344.15972 C 397.9749,337.07379 386.29093,329.19196 375.19188,320.53921 C 373.01872,318.92621 370.95443,317.14586 368.82645,315.46013 C 364.86552,312.12792 360.94718,308.75241 357.17198,305.21525 C 353.78995,302.07902 350.53501,298.81028 347.3005,295.52602 C 343.57453,291.53227 339.88106,287.49042 336.51547,283.18582 C 335.56989,281.43162 335.93593,279.32426 335.22934,277.49586"
       id="path497" /><path
       style="fill:url(#linearGradient3815);fill-opacity:1;fill-rule:nonzero;stroke:none"
       d="M 334.13971,283.9787 L 335.77622,286.55782 C 366.84658,331.42654 419.93358,353.02272 420.45298,353.25769 L 420.60962,352.50332 C 415.14771,349.75657 366.67894,324.51224 334.13971,283.9787"
       id="path513" /><path
       style="fill:url(#linearGradient4009);fill-opacity:1;fill-rule:nonzero;stroke:none"
       d="M 588.19473,255.78564 C 589.43895,255.41906 590.58769,254.79708 591.81101,254.37096 C 593.66486,253.58966 595.53795,252.85818 597.39053,252.07448 C 599.34928,251.2742 601.31268,250.4863 603.26762,249.6776 C 603.9657,249.78188 603.52708,250.86055 603.82032,251.35067 C 604.12534,252.05015 604.10301,253.08614 603.13012,253.13464 C 602.04747,253.53632 601.012,254.0602 599.91913,254.43264 C 598.64996,255.0228 597.3243,255.48417 596.04865,256.05748 C 594.70158,256.56558 593.3981,257.18346 592.04782,257.68248 C 591.34324,258.11254 590.25819,258.59263 589.73023,257.64666 C 589.29931,256.99326 588.68486,256.52382 588.19473,255.92304"
       id="path535" /><path
       style="fill:url(#linearGradient3806);fill-opacity:1;fill-rule:nonzero;stroke:none"
       d="M 481.57139,168.89113 L 466.40034,167.03752 C 465.18429,170.83269 456.71043,198.02818 456.67059,218.12388 C 456.67059,218.15274 456.67059,218.19258 456.67059,218.22144 C 456.67059,224.39099 458.16145,229.41182 461.07447,233.22623 C 459.2607,229.81306 458.31809,225.65513 458.31809,220.79094 C 458.31809,220.76208 458.31809,220.73186 458.31809,220.69338 C 458.35794,200.59768 467.32096,173.88311 468.548,170.08794 L 481.76788,171.74506 C 503.85461,159.09268 506.99297,148.52062 507.43404,147.9229 C 506.46258,149.23651 499.58676,158.85771 481.57139,168.89113"
       id="path551" /><path
       style="fill:url(#linearGradient3801);fill-opacity:1;fill-rule:nonzero;stroke:none"
       d="M 420.84459,191.62367 C 412.83241,189.96654 391.65945,185.6616 391.65945,185.6616 L 394.62056,189.52547 C 394.62056,189.52547 413.23502,194.02691 421.9727,195.89976 C 422.1101,195.61532 422.23789,195.34189 422.3753,195.06707 C 422.84523,194.12446 422.87546,193.42919 422.68858,192.92903 C 422.28598,191.82016 420.84459,191.62367 420.84459,191.62367"
       id="path567" /><path
       style="fill:url(#linearGradient3796);fill-opacity:1;fill-rule:nonzero;stroke:none"
       d="M 410.08703,129.65237 C 410.73422,129.45588 411.35117,129.26969 411.95026,129.09313 C 408.89984,123.11058 400.09208,118.95239 391.45334,117.94218 C 400.07285,120.00177 406.81127,124.18937 410.08704,129.65238"
       id="path583" /><path
       style="fill:url(#linearGradient3791);fill-opacity:1;fill-rule:nonzero;stroke:none"
       d="M 444.26415,125.01325 C 445.08859,125.03263 445.86356,125.05241 446.59869,125.08195 C 443.07833,114.51938 434.62371,104.93802 421.60032,99.877068 C 433.04491,105.50634 441.31266,114.58808 444.26415,125.01325"
       id="path599" /><path
       style="fill:url(#linearGradient3786);fill-opacity:1;fill-rule:nonzero;stroke:none"
       d="M 476.67835,125.75882 C 476.67835,134.33972 474.79451,144.86286 471.2453,154.01413 C 471.94057,153.88634 472.88181,153.69947 474.00991,153.47412 C 475.74673,148.26642 478.32585,138.78289 478.32585,128.33794 C 478.32585,118.94277 476.21666,108.60554 469.54832,100.01448 C 474.92229,107.98776 476.67835,117.18699 476.67835,125.75882"
       id="path615" /><path
       style="fill:url(#linearGradient3781);fill-opacity:1;fill-rule:nonzero;stroke:none"
       d="M 412.84203,300.96489 C 423.69852,304.43715 433.94767,307.70331 444.54858,309.3302 C 463.19327,312.17451 482.60194,308.41919 500.08829,306.10389 C 514.28926,304.22143 524.78162,303.92738 538.53189,304.83976 C 540.16015,306.85001 555.80251,324.04231 569.57201,331.25066 C 586.85226,340.28239 636.89845,355.08107 639.39925,355.92475 C 640.42018,356.91545 658.89724,375.23586 670.79252,397.78289 C 671.33252,397.53693 671.87116,397.28273 672.41116,397.03677 C 660.38672,375.28532 641.09622,354.90519 640.11514,353.95434 C 637.62396,353.10104 587.28371,338.10587 570.00347,329.06315 C 556.22435,321.8548 541.78842,304.36845 540.15053,302.35819 C 526.40026,301.44581 512.64038,301.40734 498.42018,303.14278 C 480.92421,305.28083 461.46607,308.84103 442.85299,305.80023 C 432.26994,304.0744 422.05102,300.70107 411.23438,297.12026 C 394.81705,291.6982 376.4774,285.22498 357.14705,285.25383 C 357.53866,286.04804 358.2944,287.43172 359.34418,289.24549 C 378.23208,289.31419 396.73799,295.82589 412.84203,300.96489"
       id="path631" /><path
       style="fill:url(#linearGradient3776);fill-opacity:1;fill-rule:nonzero;stroke:none"
       d="M 455.80767,149.53056 C 455.87638,149.07986 456.00416,148.02046 455.88599,146.83464 C 455.71011,144.99065 455.02308,143.372 453.84688,141.98007 C 445.58875,132.21157 414.00999,134.66345 379.41927,148.07954 L 384.27385,150.05133 C 418.22699,136.88023 450.09981,135.34031 455.80767,149.53056"
       id="path647" /><path
       style="fill:url(#linearGradient3771);fill-opacity:1;fill-rule:nonzero;stroke:none"
       d="M 422.68858,192.92903 C 422.85485,193.38934 422.85485,193.98706 422.50171,194.80188 C 422.77652,194.31134 423.30691,193.98706 423.90463,193.98706 C 424.3567,193.98706 424.76754,194.17393 425.06159,194.4776 C 425.11106,194.23302 425.13992,193.99668 425.15091,193.77133 C 425.15091,193.69301 425.16053,193.6243 425.16053,193.54598 C 425.16053,192.75177 424.9448,192.10459 424.68922,191.62367 C 423.83593,189.98578 422.60064,189.57493 421.17849,189.26989 C 421.17849,189.26989 395.9644,184.11165 393.49245,183.61149 C 393.06099,182.24842 392.43305,180.23816 391.80647,178.25676 L 388.85361,176.80575 L 391.65945,185.6616 C 391.65945,185.6616 412.83242,189.96655 420.84459,191.62367 C 420.84459,191.62367 422.28599,191.82016 422.68859,192.92903"
       id="path663" /><path
       style="fill:url(#linearGradient3980);fill-opacity:1;fill-rule:nonzero;stroke:none"
       d="M 402.42112,262.24374 L 402.55853,262.24374 L 402.55853,261.28189 L 402.69593,261.28189 L 402.69593,260.18264 L 402.83334,260.18264 L 402.83334,259.2208 L 402.97075,259.2208 L 402.97075,258.12154 L 403.10815,258.12154 L 403.10815,257.1597 L 403.24556,257.1597 L 403.24556,256.06045 L 403.38297,256.06045 L 403.38297,255.0986 L 403.52037,255.0986 L 403.52037,253.99935 L 403.65778,253.99935 L 403.65778,253.17491 L 403.79518,253.17491 L 403.79518,252.48788 L 403.93259,252.48788 L 403.93259,251.66344 L 404.07,251.66344 L 404.07,250.839 L 404.2074,250.839 L 404.2074,250.15197 L 404.34481,250.15197 L 404.34481,249.32753 L 404.48222,249.32753 L 404.48222,248.6405 L 404.61962,248.6405 L 404.61962,247.81606 L 404.75703,247.81606 L 404.75703,246.99162 L 404.89444,246.99162 L 404.89444,246.30459 L 405.03184,246.30459 L 405.03184,245.48015 L 405.16925,245.48015 L 405.16925,244.79311 L 405.30666,244.79311 L 405.30666,244.10608 L 405.44406,244.10608 L 405.44406,243.41905 L 405.58147,243.41905 L 405.58147,242.86942 L 405.71888,242.86942 L 405.71888,242.3198 L 405.85628,242.3198 L 405.85628,241.63276 L 405.99369,241.63276 L 405.99369,241.08314 L 406.1311,241.08314 L 406.1311,240.39611 L 406.2685,240.39611 L 406.2685,239.84648 L 406.40591,239.84648 L 406.40591,239.15945 L 406.54331,239.15945 L 406.54331,238.60982 L 406.68072,238.60982 L 406.68072,238.0602 L 406.81813,238.0602 L 406.81813,237.37316 L 406.95553,237.37316 L 406.95553,236.82354 L 407.09294,236.82354 L 407.09294,236.1365 L 407.23035,236.1365 L 407.23035,235.58688 L 407.36775,235.58688 L 407.36775,235.03725 L 407.50516,235.03725 L 407.50516,234.62503 L 407.64257,234.62503 L 407.64257,234.07541 L 407.77997,234.07541 L 407.77997,233.52578 L 407.91738,233.52578 L 407.91738,233.11356 L 408.05479,233.11356 L 408.05479,232.56394 L 408.19219,232.56394 L 408.19219,232.01431 L 408.3296,232.01431 L 408.3296,231.60209 L 408.46701,231.60209 L 408.46701,231.05246 L 408.60441,231.05246 L 408.60441,230.50284 L 408.74182,230.50284 L 408.74182,230.09062 L 408.87923,230.09062 L 408.87923,229.54099 L 409.01663,229.54099 L 409.01663,228.99137 L 409.15404,228.99137 L 409.15404,228.57915 L 409.29144,228.57915 L 409.29144,228.02952 L 409.42885,228.02952 L 409.42885,227.47989 L 409.56626,227.47989 L 409.56626,227.06767 L 409.70366,227.06767 L 409.70366,226.51805 L 409.84107,226.51805 L 409.84107,226.10583 L 409.97848,226.10583 L 409.97848,225.69361 L 410.11588,225.69361 L 410.11588,225.28139 L 410.25329,225.28139 L 410.25329,224.86917 L 410.3907,224.86917 L 410.3907,224.45695 L 410.5281,224.45695 L 410.5281,224.04473 L 410.66551,224.04473 L 410.66551,223.63251 L 410.80292,223.63251 L 410.80292,223.22029 L 410.94032,223.22029 L 410.94032,222.67067 L 411.07773,222.67067 L 411.07773,222.25845 L 411.21514,222.25845 L 411.21514,221.84623 L 411.35254,221.84623 L 411.35254,221.43401 L 411.48995,221.43401 L 411.48995,221.02179 L 411.62736,221.02179 L 411.62736,220.60957 L 411.76476,220.60957 L 411.76476,220.19735 L 411.90217,220.19735 L 411.90217,219.78513 L 412.03957,219.78513 L 412.03957,219.37291 L 412.17698,219.37291 L 412.17698,218.96069 L 412.31439,218.96069 L 412.31439,218.54847 L 412.45179,218.54847 L 412.45179,218.13625 L 412.5892,218.13625 L 412.5892,217.72403 L 412.72661,217.72403 L 412.72661,217.31181 L 412.86401,217.31181 L 412.86401,217.037 L 413.00142,217.037 L 413.00142,216.62478 L 413.13883,216.62478 L 413.13883,216.21256 L 413.27623,216.21256 L 413.27623,215.93775 L 413.41364,215.93775 L 413.41364,215.52553 L 413.55105,215.52553 L 413.55105,215.11331 L 413.68845,215.11331 L 413.68845,214.8385 L 413.82586,214.8385 L 413.82586,214.42628 L 413.96327,214.42628 L 413.96327,214.01406 L 414.10067,214.01406 L 414.10067,213.73924 L 414.23808,213.73924 L 414.23808,213.32702 L 414.37549,213.32702 L 414.37549,212.91481 L 414.51289,212.91481 L 414.51289,212.63999 L 414.6503,212.63999 L 414.6503,212.22777 L 414.7877,212.22777 L 414.7877,211.81555 L 414.92511,211.81555 L 414.92511,211.40333 L 415.06252,211.40333 L 415.06252,211.12852 L 415.19992,211.12852 L 415.19992,210.7163 L 415.33733,210.7163 L 415.33733,210.44149 L 415.47474,210.44149 L 415.47474,210.02927 L 415.61214,210.02927 L 415.61214,209.75446 L 415.74955,209.75446 L 415.74955,209.34224 L 415.88696,209.34224 L 415.88696,209.06742 L 416.02436,209.06742 L 416.02436,208.79261 L 416.16177,208.79261 L 416.16177,208.38039 L 416.29918,208.38039 L 416.29918,208.10558 L 416.43658,208.10558 L 416.43658,207.83076 L 416.57399,207.83076 L 416.57399,207.41854 L 416.7114,207.41854 L 416.7114,207.14373 L 416.8488,207.14373 L 416.8488,206.86892 L 416.98621,206.86892 L 416.98621,206.4567 L 417.12362,206.4567 L 417.12362,206.18189 L 417.26102,206.18189 L 417.26102,205.76967 L 417.39843,205.76967 L 417.39843,205.49485 L 417.53583,205.49485 L 417.53583,205.22004 L 417.67324,205.22004 L 417.67324,204.80782 L 417.81065,204.80782 L 417.81065,204.53301 L 417.94805,204.53301 L 417.94805,204.2582 L 418.08546,204.2582 L 418.08546,203.84598 L 418.22287,203.84598 L 418.22287,203.57116 L 418.36027,203.57116 L 418.36027,203.15894 L 418.49768,203.15894 L 418.49768,202.88413 L 418.63509,202.88413 L 418.63509,202.60932 L 418.77249,202.60932 L 418.77249,202.3345 L 418.9099,202.3345 L 418.9099,202.05969 L 419.04731,202.05969 L 419.04731,201.78488 L 419.18471,201.78488 L 419.18471,201.37266 L 419.32212,201.37266 L 419.32212,201.09785 L 419.45953,201.09785 L 419.45953,200.82303 L 419.59693,200.82303 L 419.59693,200.54822 L 419.73434,200.54822 L 419.73434,200.27341 L 419.87175,200.27341 L 419.87175,199.99859 L 420.00915,199.99859 L 420.00915,199.72378 L 420.14656,199.72378 L 420.14656,199.44897 L 420.28396,199.44897 L 420.28396,199.17415 L 420.42137,199.17415 L 420.42137,198.76194 L 420.55878,198.76194 L 420.55878,198.48712 L 420.69618,198.48712 L 420.69618,198.21231 L 420.83359,198.21231 L 420.83359,197.9375 L 420.971,197.9375 L 420.971,197.66268 L 421.1084,197.66268 L 421.1084,197.38787 L 421.24581,197.38787 L 421.24581,197.11306 L 421.38322,197.11306 L 421.38322,196.83824 L 421.52062,196.83824 L 421.52062,196.56343 L 421.65803,196.56343 L 421.65803,196.15121 L 421.79544,196.15121 L 421.79544,195.8764 L 421.93284,195.8764 L 421.93284,195.60159 L 422.07025,195.60159 L 422.07025,195.32677 L 422.20766,195.32677 L 422.20766,195.05196 L 422.34506,195.05196 L 422.34506,194.77715 L 422.48247,194.77715 L 422.48247,194.63974 L 422.61988,194.63974 L 422.61988,194.36493 L 422.75728,194.36493 L 422.75728,194.22752 L 423.0321,194.22752 L 423.0321,194.09011 L 423.30691,194.09011 L 423.30691,193.95271 L 424.40616,193.95271 L 424.40616,194.09011 L 424.81838,194.09011 L 424.81838,194.22752 L 424.95579,194.22752 L 424.95579,194.36493 L 425.09319,194.36493 L 425.09319,194.91455 L 424.95579,194.91455 L 424.95579,195.46418 L 424.81838,195.46418 L 424.81838,195.73899 L 424.68097,195.73899 L 424.68097,196.15121 L 424.54357,196.15121 L 424.54357,196.42602 L 424.40616,196.42602 L 424.40616,196.70084 L 424.26875,196.70084 L 424.26875,196.97565 L 424.13135,196.97565 L 424.13135,197.25046 L 423.99394,197.25046 L 423.99394,197.52528 L 423.85653,197.52528 L 423.85653,197.80009 L 423.71913,197.80009 L 423.71913,198.0749 L 423.58172,198.0749 L 423.58172,198.34972 L 423.44431,198.34972 L 423.44431,198.76194 L 423.30691,198.76194 L 423.30691,199.03675 L 423.1695,199.03675 L 423.1695,199.31156 L 423.0321,199.31156 L 423.0321,199.58637 L 422.89469,199.58637 L 422.89469,199.86119 L 422.75728,199.86119 L 422.75728,200.136 L 422.61988,200.136 L 422.61988,200.41081 L 422.48247,200.41081 L 422.48247,200.68563 L 422.34506,200.68563 L 422.34506,200.96044 L 422.20766,200.96044 L 422.20766,201.37266 L 422.07025,201.37266 L 422.07025,201.64747 L 421.93284,201.64747 L 421.93284,201.92228 L 421.79544,201.92228 L 421.79544,202.1971 L 421.65803,202.1971 L 421.65803,202.47191 L 421.52062,202.47191 L 421.52062,202.74672 L 421.38322,202.74672 L 421.38322,203.02154 L 421.24581,203.02154 L 421.24581,203.29635 L 421.1084,203.29635 L 421.1084,203.57116 L 420.971,203.57116 L 420.971,203.98338 L 420.83359,203.98338 L 420.83359,204.2582 L 420.69618,204.2582 L 420.69618,204.53301 L 420.55878,204.53301 L 420.55878,204.80782 L 420.42137,204.80782 L 420.42137,205.22004 L 420.28397,205.22004 L 420.28397,205.49485 L 420.14656,205.49485 L 420.14656,205.90707 L 420.00915,205.90707 L 420.00915,206.18189 L 419.87175,206.18189 L 419.87175,206.4567 L 419.73434,206.4567 L 419.73434,206.86892 L 419.59693,206.86892 L 419.59693,207.14373 L 419.45953,207.14373 L 419.45953,207.41854 L 419.32212,207.41854 L 419.32212,207.83076 L 419.18471,207.83076 L 419.18471,208.10558 L 419.04731,208.10558 L 419.04731,208.5178 L 418.9099,208.5178 L 418.9099,208.79261 L 418.77249,208.79261 L 418.77249,209.06742 L 418.63509,209.06742 L 418.63509,209.47964 L 418.49768,209.47964 L 418.49768,209.75446 L 418.36027,209.75446 L 418.36027,210.02927 L 418.22287,210.02927 L 418.22287,210.44149 L 418.08546,210.44149 L 418.08546,210.7163 L 417.94805,210.7163 L 417.94805,211.12852 L 417.81065,211.12852 L 417.81065,211.40333 L 417.67324,211.40333 L 417.67324,211.67815 L 417.53584,211.67815 L 417.53584,212.09037 L 417.39843,212.09037 L 417.39843,212.36518 L 417.26102,212.36518 L 417.26102,212.7774 L 417.12362,212.7774 L 417.12362,213.18962 L 416.98621,213.18962 L 416.98621,213.46443 L 416.8488,213.46443 L 416.8488,213.87665 L 416.7114,213.87665 L 416.7114,214.28887 L 416.57399,214.28887 L 416.57399,214.70109 L 416.43658,214.70109 L 416.43658,214.9759 L 416.29918,214.9759 L 416.29918,215.38812 L 416.16177,215.38812 L 416.16177,215.80034 L 416.02436,215.80034 L 416.02436,216.07515 L 415.88696,216.07515 L 415.88696,216.48737 L 415.74955,216.48737 L 415.74955,216.89959 L 415.61214,216.89959 L 415.61214,217.31181 L 415.47474,217.31181 L 415.47474,217.58663 L 415.33733,217.58663 L 415.33733,217.99885 L 415.19992,217.99885 L 415.19992,218.41107 L 415.06252,218.41107 L 415.06252,218.68588 L 414.92511,218.68588 L 414.92511,219.0981 L 414.78771,219.0981 L 414.78771,219.51032 L 414.6503,219.51032 L 414.6503,219.92254 L 414.51289,219.92254 L 414.51289,220.19735 L 414.37549,220.19735 L 414.37549,220.60957 L 414.23808,220.60957 L 414.23808,221.1592 L 414.10067,221.1592 L 414.10067,221.57141 L 413.96327,221.57141 L 413.96327,221.98363 L 413.82586,221.98363 L 413.82586,222.39585 L 413.68845,222.39585 L 413.68845,222.80807 L 413.55105,222.80807 L 413.55105,223.22029 L 413.41364,223.22029 L 413.41364,223.63251 L 413.27623,223.63251 L 413.27623,224.18214 L 413.13883,224.18214 L 413.13883,224.59436 L 413.00142,224.59436 L 413.00142,225.00658 L 412.86401,225.00658 L 412.86401,225.4188 L 412.72661,225.4188 L 412.72661,225.83102 L 412.5892,225.83102 L 412.5892,226.24324 L 412.45179,226.24324 L 412.45179,226.79286 L 412.31439,226.79286 L 412.31439,227.20508 L 412.17698,227.20508 L 412.17698,227.6173 L 412.03958,227.6173 L 412.03958,228.02952 L 411.90217,228.02952 L 411.90217,228.44174 L 411.76476,228.44174 L 411.76476,228.99137 L 411.62736,228.99137 L 411.62736,229.40359 L 411.48995,229.40359 L 411.48995,229.95321 L 411.35254,229.95321 L 411.35254,230.50284 L 411.21514,230.50284 L 411.21514,231.05246 L 411.07773,231.05246 L 411.07773,231.46468 L 410.94032,231.46468 L 410.94032,232.01431 L 410.80292,232.01431 L 410.80292,232.56394 L 410.66551,232.56394 L 410.66551,232.97615 L 410.5281,232.97615 L 410.5281,233.52578 L 410.3907,233.52578 L 410.3907,234.07541 L 410.25329,234.07541 L 410.25329,234.62503 L 410.11588,234.62503 L 410.11588,235.03725 L 409.97848,235.03725 L 409.97848,235.58688 L 409.84107,235.58688 L 409.84107,236.1365 L 409.70366,236.1365 L 409.70366,236.68613 L 409.56626,236.68613 L 409.56626,237.09835 L 409.42885,237.09835 L 409.42885,237.78538 L 409.29145,237.78538 L 409.29145,238.33501 L 409.15404,238.33501 L 409.15404,239.02204 L 409.01663,239.02204 L 409.01663,239.57167 L 408.87923,239.57167 L 408.87923,240.2587 L 408.74182,240.2587 L 408.74182,240.80833 L 408.60441,240.80833 L 408.60441,241.49536 L 408.46701,241.49536 L 408.46701,242.04498 L 408.3296,242.04498 L 408.3296,242.73202 L 408.19219,242.73202 L 408.19219,243.41905 L 408.05479,243.41905 L 408.05479,243.96868 L 407.91738,243.96868 L 407.91738,244.65571 L 407.77997,244.65571 L 407.77997,245.20533 L 407.64257,245.20533 L 407.64257,245.89237 L 407.50516,245.89237 L 407.50516,246.71681 L 407.36775,246.71681 L 407.36775,247.40384 L 407.23035,247.40384 L 407.23035,248.22828 L 407.09294,248.22828 L 407.09294,249.05272 L 406.95553,249.05272 L 406.95553,249.73975 L 406.81813,249.73975 L 406.81813,250.56419 L 406.68072,250.56419 L 406.68072,251.38863 L 406.54332,251.38863 L 406.54332,252.07566 L 406.40591,252.07566 L 406.40591,252.9001 L 406.2685,252.9001 L 406.2685,253.72454 L 406.1311,253.72454 L 406.1311,254.41157 L 405.99369,254.41157 L 405.99369,255.51082 L 405.85628,255.51082 L 405.85628,256.47267 L 405.71888,256.47267 L 405.71888,257.57192 L 405.58147,257.57192 L 405.58147,258.53376 L 405.44406,258.53376 L 405.44406,259.63302 L 405.30666,259.63302 L 405.30666,260.59486 L 405.16925,260.59486 L 405.16925,261.69411 L 405.03184,261.69411 L 405.03184,262.65596 L 404.89444,262.65596 L 404.89444,263.75521 L 404.75703,263.75521 L 404.75703,264.99187 L 404.61962,264.99187 L 404.61962,265.5415 L 404.48222,265.5415 L 404.48222,265.40409 L 404.34481,265.40409 L 404.34481,265.26668 L 404.2074,265.26668 L 404.2074,265.12928 L 404.07,265.12928 L 404.07,264.99187 L 403.93259,264.99187 L 403.93259,264.85446 L 403.79519,264.85446 L 403.79519,264.71706 L 403.65778,264.71706 L 403.65778,264.57965 L 403.52037,264.57965 L 403.52037,264.44224 L 403.38297,264.44224 L 403.38297,264.30484 L 403.24556,264.30484 L 403.24556,264.16743 L 403.10815,264.16743 L 403.10815,264.03002 L 402.97075,264.03002 L 402.97075,263.89262 L 402.83334,263.89262 L 402.83334,263.75521 L 402.69593,263.75521 L 402.69593,263.61781 L 402.55853,263.61781 L 402.55853,263.4804 L 402.42112,263.4804"
       id="path685" /></g><g
     inkscape:groupmode="layer"
     id="layer2"
     inkscape:label="Text"><path
       style="fill:#2f7d3f"
       d="M 760.40625,550.25 L 760.40625,636.96875 L 780.0625,636.96875 L 780.0625,605.21875 L 803.125,605.21875 L 826.8125,636.96875 L 850.5625,636.96875 L 825.9375,603.96875 C 840.86397,600.3206 846.46878,588.47655 846.46875,578.0625 C 846.46875,560.63386 835.07378,550.25002 815.96875,550.25 L 760.40625,550.25 z M 780.0625,567.96875 L 815.96875,567.96875 C 822.85282,567.96875 826.8125,571.51593 826.8125,577.625 C 826.8125,586.20604 820.0099,587.5 815.96875,587.5 L 780.0625,587.5 L 780.0625,567.96875 z "
       id="path2669" /><path
       style="fill:#2f7d3f"
       d="M 174.625,548.1875 C 143.0564,548.18752 124.1875,565.37575 124.1875,594.21875 C 124.1875,614.22692 136.61501,637.50276 171.21875,638.9375 C 172.335,638.98378 173.46224,639 174.625,639 C 211.8443,639.00001 225.0625,614.87232 225.0625,594.21875 C 225.0625,565.37577 206.1859,548.1875 174.625,548.1875 z M 174.625,565.90625 C 194.19169,565.90622 205.375,575.89485 205.375,593.3125 C 205.37499,617.64447 186.13005,621.28125 174.625,621.28125 C 163.12271,621.28125 143.8125,617.64444 143.8125,593.3125 C 143.8125,587.86949 144.92492,583.16392 147.03125,579.25 C 147.24188,578.85861 147.45678,578.46899 147.6875,578.09375 C 152.53268,570.21368 161.77895,565.90625 174.625,565.90625 z "
       id="path2659" /><path
       style="fill:#2f7d3f"
       d="M 857.4375,550.25 L 935.6875,550.25 L 935.6875,567.96875 L 877.09375,567.96875 L 877.09375,584.71875 L 922.4375,584.71875 L 922.4375,602.46875 L 877.09375,602.46875 L 877.09375,619.21875 L 935.6875,619.21875 L 935.6875,636.96875 L 857.4375,636.96875 L 857.4375,550.25 z "
       id="path2671" /><path
       style="fill:#2f7d3f"
       d="M 671.1875,550.25 L 749.4375,550.25 L 749.4375,567.96875 L 690.84375,567.96875 L 690.84375,584.71875 L 736.15625,584.71875 L 736.15625,602.46875 L 690.84375,602.46875 L 690.84375,619.21875 L 749.4375,619.21875 L 749.4375,636.96875 L 671.1875,636.96875 L 671.1875,550.25 z "
       id="path2667" /><path
       style="fill:#2f7d3f"
       d="M 581.96875,550.25 L 660.1875,550.25 L 660.1875,567.96875 L 601.59375,567.96875 L 601.59375,584.71875 L 646.90625,584.71875 L 646.90625,602.46875 L 601.59375,602.46875 L 601.59375,619.21875 L 660.1875,619.21875 L 660.1875,636.96875 L 581.96875,636.96875 L 581.96875,550.25 z "
       id="path2665" /><path
       style="fill:#2f7d3f"
       d="M 336.71875,550.25 L 356.1875,550.25 L 407.4375,608.75 L 407.4375,550.25 L 427.09375,550.25 L 427.09375,636.96875 L 407.4375,636.96875 L 356.375,577.8125 L 356.375,636.96875 L 336.71875,636.96875 L 336.71875,550.25 z "
       id="path2663" /><path
       style="fill:#2f7d3f"
       d="M 233.5,550.25 L 253.15625,550.25 L 253.15625,584.71875 L 304.28125,584.71875 L 304.28125,550.25 L 323.90625,550.25 L 323.90625,636.96875 L 304.28125,636.96875 L 304.28125,602.46875 L 253.15625,602.46875 L 253.15625,636.96875 L 233.5,636.96875 L 233.5,550.25 z "
       id="path2661" /><path
       style="fill:#2f7d3f"
       d="M 466.40625,528.65625 L 466.40625,636.96875 L 513.90625,636.96875 C 558.30367,636.96875 574.03123,608.21015 574.03125,583.59375 C 574.03125,549.21877 551.54599,528.65626 513.90625,528.65625 L 466.40625,528.65625 z M 486.09375,546.53125 L 513.90625,546.5625 C 539.56279,546.5625 554.25,559.62527 554.25,582.4375 C 554.25,614.31993 528.97972,619.09373 513.90625,619.09375 L 486.09375,619.09375 L 486.09375,546.53125 z "
       id="path2647" /><path
       style="fill:#2f7d3f"
       d="M 96.09375,528.71875 L 115.75,528.71875 L 115.75,596.28125 C 115.46543,626.23175 101.27112,639.00002 68.25,639 C 52.20518,639 41.000001,636.43752 41,636.4375 L 41,616.375 C 41,616.375 52.14195,620.40626 64.65625,620.40625 C 77.935215,620.40625 86.277296,618.55752 90.90625,613.78125 C 94.731097,609.84868 96.280077,603.25004 96.09375,593.53125 C 96.09375,593.48178 96.093753,528.71878 96.09375,528.71875 z "
       id="path2655" /></g></svg>